<svg version="1.0" xmlns="http://www.w3.org/2000/svg" width="933.333" height="933.333" viewBox="0 0 700 700"><path d="M228 5.7c.7 1.4 33.1 90.7 35.6 98.3.3.8-3.2-2.2-7.8-6.6-4.6-4.5-10.8-10.6-13.9-13.5-3.1-3-10.1-9.8-15.6-15.2-5.5-5.3-10.3-9.7-10.7-9.7-.4 0-.5.8-.2 1.7.3 1 .8 3.6 1.1 5.8.3 2.2.7 4.9 1 6 .2 1.1.7 4.2 1 7 .4 2.7 1 6.6 1.5 8.5.5 1.9 1.4 7.4 2.1 12.2 1.1 7.6 1.8 9.3 4.7 12.5 1.8 2.1 4.3 4.9 5.5 6.3 11.7 13.4 15.3 17.6 15.7 18 .3.3 3.4 3.9 7 8s6.7 7.7 7 8c.3.3 5.2 5.9 11 12.5s10.7 12.2 11 12.5c7.3 7.5 6.8 7.4-14.5-3.5-11.5-5.9-26.6-13.7-33.5-17.3-24.9-12.9-38.8-20.1-53.5-27.7-8.2-4.3-20.4-10.6-27-14-6.6-3.4-19.6-10.2-29-15-9.3-4.8-21.7-11.3-27.5-14.3C73.5 72.9 46.2 59 45.6 59c-.3 0 3.3 5.3 8.2 11.8 4.8 6.5 11.4 15.5 14.7 20.1 3.3 4.5 8.1 11 10.6 14.4 2.5 3.4 13.3 18.1 24 32.7 10.6 14.6 19.6 26.7 19.9 27 .6.6 4.2 5.7 5.5 7.9.9 1.6 1.3 1.8-8-3.9-15.7-9.7-58.6-35.1-60.2-35.7-1.4-.5-1.2 0 .8 2.8 1.4 1.9 12.4 17.3 24.4 34.4 12 17 22.9 32.6 24.4 34.5 1.4 1.9 3.9 5.4 5.5 7.7 1.5 2.3 6.2 6.8 10.4 10 16 12.2 17.4 13.3 16.6 13.3-.5 0-10.8-2.7-22.9-6-12-3.3-22.3-6-22.7-6-.7 0 2.3 3 10.6 10.5 4.9 4.4 22.1 20.1 24 22 1.2 1.1 6.6 6 12.1 11 5.5 4.9 12 10.9 14.5 13.2 9.3 8.7 12.7 11.5 21.7 17.5 5.1 3.4 9.1 6.4 8.9 6.5-.2.2-2.3-.3-4.7-1.1-4.9-1.6-37.2-11.5-40.4-12.3-2.8-.8-1.3.6 7.1 6.3 20.1 13.8 83.1 57.8 84.4 59.1 1.3 1.2 1.1 1.3-2 .8-5.3-.9-8.2-1.4-11-2-2.2-.4-9.5-1.8-17-3.2-1.4-.2-5.3-1-8.8-1.7-8.2-1.7-7.1-.6 7.3 6.9 13.6 7.1 23.1 12.2 27 14.5 1.7 1 7.1 3.9 12 6.5 8.4 4.5 15.7 8.4 21.5 11.5 1.4.8 3.4 1.5 4.5 1.6 1.1.1 5.6.4 10 .8s9.6.9 11.5 1.1c4.5.4 14.9 1.4 22.5 2 3.3.3 7.8.7 10 1 2.2.2 8.1.7 13 1.1 5 .4 9.5.8 10 .9.6.1 3.1.3 5.8.3 2.6.1 4.7.7 4.7 1.3 0 .5-.4.8-.8.5-.5-.3-9.4-.8-19.8-1.1-10.4-.3-23.4-.8-28.9-1-5.5-.2-18.8-.6-29.5-1-10.7-.3-23.5-.8-28.5-1l-9-.3 10 3.3c5.5 1.9 19 6.3 29.9 9.8l19.9 6.5-10.8 5.1c-5.9 2.8-11.1 5.1-11.6 5.1-.4 0-1.1.5-1.5 1.1-.4.8 1.4.9 6.2.5 15.8-1.4 26.9-2.3 37.9-3.1 4.4-.3 9.5-.8 11.4-1 4.4-.6 8.4-3.2-42.9 28.5-23.4 14.4-43.3 26.9-44.4 27.9-1 .9-10.8 13.9-21.9 29-19.6 26.9-20 27.6-22.3 36-1.2 4.7-4 15.5-6.3 23.9-2.3 8.4-4.1 15.9-4.1 16.5 0 .7 1.1-.2 2.4-1.8 1.3-1.7 9.2-11.1 17.6-21 8.4-9.9 15.5-18.5 15.7-19.2.3-.7 1.1-1.3 1.8-1.3.9 0 1.2 6.3 1.2 27.2v27.3l3.3 11c1.7 6 3.6 12.3 4 14 3.6 13.5 16.4 55.5 16.9 55.5.4 0 .7-9.1.6-20.3 0-13.5.4-21 1.1-22.7.7-1.4 4.2-9.9 7.9-19s6.9-16.9 7.2-17.3c.7-1.1 2.2 1.5 12.3 20.8 4.5 8.8 9.7 18.7 11.5 22 5.4 10 12.5 23.5 18 34 7 13.3 11.6 21.9 12.2 22.5.2.2.2-.9-.1-2.5-.3-1.7-.8-6.6-1.2-11-.3-4.4-.7-8.7-.9-9.5-.3-1.4-.9-7.1-2.1-20-.3-3-1.3-13.3-2.2-22.7-2.6-25.7-2.9-25.7 15.8-.5 8.5 11.4 15.7 20.9 16 21.2.3.3 6.3 8.3 13.4 17.8 7 9.4 13 17.2 13.1 17.2.2 0-3.2-8.7-7.4-19.3l-7.8-19.4v-11.1c0-6.2.1-11.2.3-11.2.1 0 4.2 7.1 9 15.7 4.7 8.7 9.2 16.5 9.8 17.4 1 1.5 2.5 1.1 13.8-3.5 7-2.9 13.1-5.5 13.4-5.9 1.4-1.4 4-.7 5.8 1.5 5.6 6.8 19.2 22.6 20.7 24.2 1.8 1.9 1.8 1.9 1.4-.5-.3-2.2-1-10-2-24.4-.2-2.8-.7-8.8-1-13.5-.8-9.6-.8-9.1-.6-10.7.3-2.9 7.4 1.7 18.6 11.9 4.1 3.8 5.6 3.8 3.6 0-.6-.9-2.2-4.9-3.8-8.9l-2.8-7.2-9.5-4.7c-5.2-2.6-9.7-4.9-9.9-5.1-.2-.2.1-1.4.7-2.7l1.1-2.4 10.5 4.3c5.8 2.4 10.6 4.3 10.7 4.2.1-.1.2-2.2.4-4.5l.2-4.4-10.6-5c-18.7-8.8-20.6-9.6-21.2-9.3-.3.2-3 5.8-5.9 12.5-2.9 6.6-5.6 12-6 12-.4 0-2-1.5-3.7-3.2-1.6-1.8-8.3-8.5-14.9-14.8-6.5-6.4-12-12.3-12-13.3-.1-.9-.5-7.6-.8-14.9-.4-7.3-.9-15.8-1.1-18.8-.5-7.5-1.6-26.1-1.9-33.6-.3-4.7 0-6.3 1.3-7.1 1.3-.8 1.6-.6 1.7 1.1 0 2 .9 8 1.8 12.1.2 1.1.7 4.1 1 6.7.4 2.8 3.8 11.4 8.4 21 4.3 9 8.4 17.8 9.1 19.5 1.2 2.8 1.7 3.2 4 2.7 1.4-.4 3.1-1 3.6-1.4.6-.4 2.4-1.2 4-1.8 7.2-2.6 36.2-13.4 38.1-14.2 1.8-.7 3.6 1 13.9 13.1 6.5 7.6 12.6 14.6 13.6 15.5 1.6 1.5 1.7 1.3 1.4-3.3-.9-10.9-1.4-18.3-2-26.8-.3-5-.8-11.1-1.1-13.8-.4-4.4-.3-4.7 1.9-4.7 1.5 0 4.2 1.6 6.8 4.1 2.4 2.2 6.6 5.8 9.2 8.1l4.8 4-2.2-5.3c-6.9-17-5.2-14.9-16-20.2-9-4.5-9.7-5-8.6-6.8.6-1 1.7-1.9 2.3-1.9 1.1 0 14.9 6 18.7 8 1.5.9 1.7.5 1.7-4.2 0-5-.2-5.4-3.2-6.7-4.7-2.1-21.8-10-25.2-11.7-1.6-.8-3-1.4-3-1.4-.1 0-2.9 6.5-6.1 14.5-3.3 8-6.4 14.5-6.8 14.5-1.4 0-13.1-8.2-14.2-9.9-.5-.9-1.7-3.6-2.6-6.1-.9-2.5-2.6-6.8-3.7-9.7l-2.1-5.1 7.1-5.9c11.4-9.4 26.2-21.7 27.4-22.8.7-.5 6.7-5.5 13.4-11l12.2-10 27.2-6.8c14.9-3.7 27.8-7 28.7-7.2.9-.2 3.2-.7 5-1.2 1.9-.5 7.9-.8 13.4-.7 9.7.1 10.6.3 31.5 7.7 11.8 4.1 25.6 9 30.6 10.7l9.2 3.2 1.4 5.8 1.4 5.8-3.3 5.7c-1.8 3.1-3.3 5.9-3.3 6.3 0 .4 3.6.7 7.9.6l8-.1 7.3-6.4c4-3.5 7.5-6.7 7.8-7.1.3-.4.5-8.5.5-18-.1-19.2.6-16.8-8-30.3-1.8-2.8-5.8-9.3-9-14.5-3.2-5.2-6.8-10.5-7.9-11.6-1.5-1.5-10.3-4.5-30.6-10.2-26.4-7.5-49.7-13.9-54.5-14.8-1.1-.2-8.7-2.1-17-4.3-12.4-3.2-15-4.1-15.2-5.7-.1-1-.4-2.8-.6-3.9-.5-1.9-2.4-10.1-3.2-13.5-1-4.1-4.8-20.2-6-25.6-.8-3.3-1.5-6.4-1.5-7 0-.5 6.8 5.9 15 14.1 8.8 8.8 14.7 14 14.2 12.5-.5-1.4-3.9-8.1-7.4-15-3.6-6.9-13.1-25.6-21.2-41.5-14.3-28.3-14.7-29.3-17.9-43.4-3.1-13.3-3.6-14.6-6.8-17.5-4.2-3.8-9.3-8.1-37.9-32.6-12.4-10.5-23.6-20.2-25-21.4-1.4-1.2-7-5.9-12.5-10.6-5.5-4.6-11.8-10-14.1-12-2.2-1.9-5.6-4.8-7.5-6.4-1.8-1.6-5-4.3-7-6-1.9-1.7-6-5.2-9-7.7-2.9-2.6-13.8-11.8-24-20.5-10.2-8.8-21-17.9-23.9-20.4-8.8-7.4-21.3-18.1-24.5-20.9C280.6 48.7 228 4 227.5 4c-.3 0-.1.8.5 1.7zm228.4 401.1c.3.5-.1.9-.9.9s-1.2-.4-.9-.9c.3-.4.7-.8.9-.8.2 0 .6.4.9.8zm52 25.2c1.4 2.1 2 3.7 1.3 3.4-1.2-.4-5.2-7.4-4.3-7.4.2 0 1.5 1.8 3 4zm-58.1-1.3c-.7.2-1.9.2-2.5 0-.7-.3-.2-.5 1.2-.5s1.9.2 1.3.5zm11 1c-.7.2-1.9.2-2.5 0-.7-.3-.2-.5 1.2-.5s1.9.2 1.3.5zm10.7.9c0 .2-1.6.4-3.5.4s-3.5-.4-3.5-.8 1.6-.6 3.5-.4c1.9.2 3.5.6 3.5.8zm11.9 1.3c.8.5-.5.7-3.5.4-2.7-.3-5.1-.7-5.3-.9-.9-.8 7.5-.3 8.8.5zm-172.7 62.3c-.8.8-.9.4-.5-1.3.4-1.3.8-1.8 1.1-1 .2.7-.1 1.8-.6 2.3zm-3.1 7.5c-1.2 2-1.4 1.4-.5-1.2.4-.9.9-1.4 1.1-1.1.3.2 0 1.3-.6 2.3z"/><path d="M196 494.8l-15.5 12.8-.2 8.8c-.1 4.9.2 8.4.7 8 .5-.5 5.2-6.8 10.5-13.9 5.3-7.2 10.1-13.7 10.8-14.5.7-.8 3-4 5.2-7 2.1-3 4.4-5.8 5-6.2.6-.5.6-.8 0-.7-.5 0-8 5.7-16.5 12.7zM208.3 629.9c0 23.5-.6 21.7 8 26.6l4.8 2.7-.5-2.3c-.3-1.3-1.7-9.3-3.1-17.8-1.8-10.4-3.6-17.7-5.6-22.5-1.6-3.9-3.1-7.2-3.3-7.4-.2-.2-.4 9.2-.3 20.7z"/></svg>