<?xml version="1.0" standalone="no"?>
<!DOCTYPE svg PUBLIC "-//W3C//DTD SVG 20010904//EN"
 "http://www.w3.org/TR/2001/REC-SVG-20010904/DTD/svg10.dtd">
<svg version="1.0" xmlns="http://www.w3.org/2000/svg"
 width="700.000000pt" height="700.000000pt" viewBox="0 0 700.000000 700.000000"
 preserveAspectRatio="xMidYMid meet">
<g transform="translate(0.000000,700.000000) scale(0.100000,-0.100000)"
fill="#000000" stroke="none">
<path d="M2280 6943 c7 -14 331 -907 356 -983 3 -8 -32 22 -78 66 -46 45 -108
106 -139 135 -31 30 -101 98 -156 152 -55 53 -103 97 -107 97 -4 0 -5 -8 -2
-17 3 -10 8 -36 11 -58 3 -22 7 -49 10 -60 2 -11 7 -42 10 -70 4 -27 10 -66
15 -85 5 -19 14 -74 21 -122 11 -76 18 -93 47 -125 18 -21 43 -49 55 -63 117
-134 153 -176 157 -180 3 -3 34 -39 70 -80 36 -41 67 -77 70 -80 3 -3 52 -59
110 -125 58 -66 107 -122 110 -125 73 -75 68 -74 -145 35 -115 59 -266 137
-335 173 -249 129 -388 201 -535 277 -82 43 -204 106 -270 140 -66 34 -196
102 -290 150 -93 48 -217 113 -275 143 -255 133 -528 272 -534 272 -3 0 33
-53 82 -118 48 -65 114 -155 147 -201 33 -45 81 -110 106 -144 25 -34 133
-181 240 -327 106 -146 196 -267 199 -270 6 -6 42 -57 55 -79 9 -16 13 -18
-80 39 -157 97 -586 351 -602 357 -14 5 -12 0 8 -28 14 -19 124 -173 244 -344
120 -170 229 -326 244 -345 14 -19 39 -54 55 -77 15 -23 62 -68 104 -100 160
-122 174 -133 166 -133 -5 0 -108 27 -229 60 -120 33 -223 60 -227 60 -7 0 23
-30 106 -105 49 -44 221 -201 240 -220 12 -11 66 -60 121 -110 55 -49 120
-109 145 -132 93 -87 127 -115 217 -175 51 -34 91 -64 89 -65 -2 -2 -23 3 -47
11 -49 16 -372 115 -404 123 -28 8 -13 -6 71 -63 201 -138 831 -578 844 -591
13 -12 11 -13 -20 -8 -53 9 -82 14 -110 20 -22 4 -95 18 -170 32 -14 2 -53 10
-88 17 -82 17 -71 6 73 -69 136 -71 231 -122 270 -145 17 -10 71 -39 120 -65
84 -45 157 -84 215 -115 14 -8 34 -15 45 -16 11 -1 56 -4 100 -8 44 -4 96 -9
115 -11 45 -4 149 -14 225 -20 33 -3 78 -7 100 -10 22 -2 81 -7 130 -11 50 -4
95 -8 100 -9 6 -1 31 -3 58 -3 26 -1 47 -7 47 -13 0 -5 -4 -8 -8 -5 -5 3 -94
8 -198 11 -104 3 -234 8 -289 10 -55 2 -188 6 -295 10 -107 3 -235 8 -285 10
l-90 3 100 -33 c55 -19 190 -63 299 -98 l199 -65 -108 -51 c-59 -28 -111 -51
-116 -51 -4 0 -11 -5 -15 -11 -4 -8 14 -9 62 -5 158 14 269 23 379 31 44 3 95
8 114 10 44 6 84 32 -429 -285 -234 -144 -433 -269 -444 -279 -10 -9 -108
-139 -219 -290 -196 -269 -200 -276 -223 -360 -12 -47 -40 -155 -63 -239 -23
-84 -41 -159 -41 -165 0 -7 11 2 24 18 13 17 92 111 176 210 84 99 155 185
157 192 3 7 11 13 18 13 9 0 12 -63 12 -272 l0 -273 33 -110 c17 -60 36 -123
40 -140 36 -135 164 -555 169 -555 4 0 7 91 6 203 0 135 4 210 11 227 7 14 42
99 79 190 37 91 69 169 72 173 7 11 22 -15 123 -208 45 -88 97 -187 115 -220
54 -100 125 -235 180 -340 70 -133 116 -219 122 -225 2 -2 2 9 -1 25 -3 17 -8
66 -12 110 -3 44 -7 87 -9 95 -3 14 -9 71 -21 200 -3 30 -13 133 -22 227 -26
257 -29 257 158 5 85 -114 157 -209 160 -212 3 -3 63 -83 134 -178 70 -94 130
-172 131 -172 2 0 -32 87 -74 193 l-78 194 0 111 c0 62 1 112 3 112 1 0 42
-71 90 -157 47 -87 92 -165 98 -174 10 -15 25 -11 138 35 70 29 131 55 134 59
14 14 40 7 58 -15 56 -68 192 -226 207 -242 18 -19 18 -19 14 5 -3 22 -10 100
-20 244 -2 28 -7 88 -10 135 -8 96 -8 91 -6 107 3 29 74 -17 186 -119 41 -38
56 -38 36 0 -6 9 -22 49 -38 89 l-28 72 -95 47 c-52 26 -97 49 -99 51 -2 2 1
14 7 27 l11 24 105 -43 c58 -24 106 -43 107 -42 1 1 2 22 4 45 l2 44 -106 50
c-187 88 -206 96 -212 93 -3 -2 -30 -58 -59 -125 -29 -66 -56 -120 -60 -120
-4 0 -20 15 -37 32 -16 18 -83 85 -149 148 -65 64 -120 123 -120 133 -1 9 -5
76 -8 149 -4 73 -9 158 -11 188 -5 75 -16 261 -19 336 -3 47 0 63 13 71 13 8
16 6 17 -11 0 -20 9 -80 18 -121 2 -11 7 -41 10 -67 4 -28 38 -114 84 -210 43
-90 84 -178 91 -195 12 -28 17 -32 40 -27 14 4 31 10 36 14 6 4 24 12 40 18
72 26 362 134 381 142 18 7 36 -10 139 -131 65 -76 126 -146 136 -155 16 -15
17 -13 14 33 -9 109 -14 183 -20 268 -3 50 -8 111 -11 138 -4 44 -3 47 19 47
15 0 42 -16 68 -41 24 -22 66 -58 92 -81 l48 -40 -22 53 c-69 170 -52 149
-160 202 -90 45 -97 50 -86 68 6 10 17 19 23 19 11 0 149 -60 187 -80 15 -9
17 -5 17 42 0 50 -2 54 -32 67 -47 21 -218 100 -252 117 -16 8 -30 14 -30 14
-1 0 -29 -65 -61 -145 -33 -80 -64 -145 -68 -145 -14 0 -131 82 -142 99 -5 9
-17 36 -26 61 -9 25 -26 68 -37 97 l-21 51 71 59 c114 94 262 217 274 228 7 5
67 55 134 110 l122 100 272 68 c149 37 278 70 287 72 9 2 32 7 50 12 19 5 79
8 134 7 97 -1 106 -3 315 -77 118 -41 256 -90 306 -107 l92 -32 14 -58 14 -58
-33 -57 c-18 -31 -33 -59 -33 -63 0 -4 36 -7 79 -6 l80 1 73 64 c40 35 75 67
78 71 3 4 5 85 5 180 -1 192 6 168 -80 303 -18 28 -58 93 -90 145 -32 52 -68
105 -79 116 -15 15 -103 45 -306 102 -264 75 -497 139 -545 148 -11 2 -87 21
-170 43 -124 32 -150 41 -152 57 -1 10 -4 28 -6 39 -5 19 -24 101 -32 135 -10
41 -48 202 -60 256 -8 33 -15 64 -15 70 0 5 68 -59 150 -141 88 -88 147 -140
142 -125 -5 14 -39 81 -74 150 -36 69 -131 256 -212 415 -143 283 -147 293
-179 434 -31 133 -36 146 -68 175 -42 38 -93 81 -379 326 -124 105 -236 202
-250 214 -14 12 -70 59 -125 106 -55 46 -118 100 -141 120 -22 19 -56 48 -75
64 -18 16 -50 43 -70 60 -19 17 -60 52 -90 77 -29 26 -138 118 -240 205 -102
88 -210 179 -239 204 -88 74 -213 181 -245 209 -119 104 -645 551 -650 551 -3
0 -1 -8 5 -17z m2284 -4011 c3 -5 -1 -9 -9 -9 -8 0 -12 4 -9 9 3 4 7 8 9 8 2
0 6 -4 9 -8z m520 -252 c14 -21 20 -37 13 -34 -12 4 -52 74 -43 74 2 0 15 -18
30 -40z m-581 13 c-7 -2 -19 -2 -25 0 -7 3 -2 5 12 5 14 0 19 -2 13 -5z m110
-10 c-7 -2 -19 -2 -25 0 -7 3 -2 5 12 5 14 0 19 -2 13 -5z m107 -9 c0 -2 -16
-4 -35 -4 -19 0 -35 4 -35 8 0 4 16 6 35 4 19 -2 35 -6 35 -8z m119 -13 c8 -5
-5 -7 -35 -4 -27 3 -51 7 -53 9 -9 8 75 3 88 -5z m-1727 -623 c-8 -8 -9 -4 -5
13 4 13 8 18 11 10 2 -7 -1 -18 -6 -23z m-31 -75 c-12 -20 -14 -14 -5 12 4 9
9 14 11 11 3 -2 0 -13 -6 -23z"/>
<path d="M1960 2052 l-155 -128 -2 -88 c-1 -49 2 -84 7 -80 5 5 52 68 105 139
53 72 101 137 108 145 7 8 30 40 52 70 21 30 44 58 50 62 6 5 6 8 0 7 -5 0
-80 -57 -165 -127z"/>
<path d="M2083 701 c0 -235 -6 -217 80 -266 l48 -27 -5 23 c-3 13 -17 93 -31
178 -18 104 -36 177 -56 225 -16 39 -31 72 -33 74 -2 2 -4 -92 -3 -207z"/>
</g>
</svg>
