<svg width="12" height="12" viewBox="0 0 12 12" fill="none" xmlns="http://www.w3.org/2000/svg">
<g clip-path="url(#clip0)">
<path d="M11.9485 10.8745L6.36394 0.72502C6.29093 0.592332 6.15143 0.509888 6 0.509888C5.84854 0.509888 5.7091 0.592332 5.63606 0.72502L0.0514567 10.8745C-0.0193569 11.0031 -0.0169311 11.1597 0.0578037 11.2861C0.132538 11.4126 0.268483 11.4901 0.415361 11.4901H11.5846C11.7315 11.4901 11.8675 11.4126 11.9422 11.2861C12.0169 11.1597 12.0193 11.0031 11.9485 10.8745ZM1.11805 10.6593L6 1.78689L10.8819 10.6593H1.11805Z" fill="#E15252"/>
<path d="M5.47949 4.75474V7.75713C5.47949 8.04457 5.71257 8.27768 6.00004 8.27768C6.28748 8.27768 6.52059 8.04457 6.52059 7.75713V4.75474C6.52059 4.46727 6.28748 4.23419 6.00004 4.23419C5.71257 4.23419 5.47949 4.4673 5.47949 4.75474Z" fill="#E15252"/>
<path d="M5.99996 8.81812C5.69766 8.81812 5.45166 9.06399 5.45166 9.36641C5.45166 9.66874 5.69766 9.91471 5.99996 9.91471C6.30225 9.91471 6.54825 9.66874 6.54825 9.36641C6.54825 9.06402 6.30222 8.81812 5.99996 8.81812Z" fill="#E15252"/>
</g>
<defs>
<clipPath id="clip0">
<rect width="12" height="12" fill="white"/>
</clipPath>
</defs>
</svg>
