<svg width="105" height="40" viewBox="0 0 105 40" fill="none" xmlns="http://www.w3.org/2000/svg"><path d="M42.604 31.517c0 .92-.46 1.38-1.38 1.38h-1.406V22.373c.135-3.3 1.867-4.896 5.194-4.896 3.435 0 5.166 1.84 5.166 5.545 0 3.733-1.46 5.68-4.436 5.789-1.38 0-2.435-.568-3.138-1.704v4.409zm2.38-5.194c1.515 0 2.273-1.054 2.354-3.191 0-2.218-.785-3.327-2.38-3.327-1.596 0-2.354 1.109-2.327 3.327.081 2.137.839 3.191 2.353 3.191zM55.615 19.913c-1.65 0-2.38 1.38-2.38 3.056v5.627h-2.76V14.449h1.407c.92 0 1.38.487 1.38 1.406v3.3c1.434-1.623 3.165-2.082 5.247-1.352 1.542.568 2.273 2.029 2.191 4.436v6.384h-2.759v-5.654c0-1.866-.73-3.056-2.326-3.056zM63.973 20.454h-2.786c.324-2.029 1.785-3.03 4.328-3.03 3.056 0 4.625 1.001 4.68 3.03v3.733c0 3.03-1.84 4.381-4.843 4.598-2.65.216-4.517-1.028-4.517-3.462.054-2.651 2.002-3.355 4.815-3.625 1.19-.135 1.812-.487 1.812-1.109-.054-.622-.649-.947-1.812-.947-.974.054-1.515.298-1.677.812zm3.516 3.624v-1.027c-.649.27-1.406.486-2.218.676-1.109.216-1.677.73-1.677 1.541.054.866.514 1.299 1.407 1.299 1.542 0 2.488-.92 2.488-2.489zM73.738 15.801v12.795h-2.786V14.449h1.433c.73 0 1.353.622 1.353 1.352zM79.364 28.839c-3.354 0-5.085-1.92-5.166-5.707 0-3.76 1.704-5.654 5.112-5.708 2.678 0 4.274 1.19 4.76 3.57h-3.029c-.325-.757-.92-1.135-1.812-1.135-1.461 0-2.191 1.109-2.191 3.3 0 2.19.784 3.3 2.326 3.273.65 0 1.217-.27 1.677-.785.27-.27.595-.405.947-.405h2.11c-.514 2.217-2.164 3.678-4.734 3.597zM94.511 23.159c0 3.787-1.704 5.707-5.058 5.707s-5.031-1.92-5.031-5.707c0-3.841 1.677-5.708 5.031-5.708 3.381-.027 5.058 1.867 5.058 5.708zm-7.249 0c.027 2.137.758 3.219 2.191 3.219 1.434 0 2.137-1.136 2.164-3.3 0-2.137-.703-3.192-2.137-3.192-1.487-.027-2.218 1.082-2.218 3.273zM102.87 28.596c-.92-.055-1.38-.487-1.38-1.38v-5.653c-.054-1.136-.703-1.704-1.92-1.704-1.245 0-1.867.568-1.894 1.704v7.033h-2.84V22.13c0-3.138 1.596-4.707 4.76-4.707 3.165 0 4.707 1.57 4.707 4.707v6.465h-1.433z" fill="#fff"/><path d="M14.98 23.593l-1.849.88 3.821-.303.728-.577-.212-.363-2.487.363z" fill="#ACD2B4"/><path d="M21.44 33.904l1.82.85v.545l-1.244-.515-.151.273 1.152.576.486 1.183-1.153-.97h-.242l.242 2.971-1.456-1.698-.12-1.729.666-1.486z" fill="#3A3A3A"/><path d="M19.015 33.662l2.092 2.032v1.395l-1.88.788-1.152-2.062V29.78l.485-.94.182.152.273 4.67z" fill="#8FC19A"/><path d="M23.715 28.78l1.82.849v.576l-1.214-.546-.151.273 1.091.546.516 1.243-1.092-1h-.242l.212 2.94-1.577-1.819-.06-1.364.697-1.699z" fill="#3A3A3A"/><path d="M22.168 29.932l1.092.728v1.122l-3.033 1.152-1.06-2.244-.244-1.456.698-.455 2.062-.121.485 1.274z" fill="#678A6F"/><path d="M15.345 28.203l3.882-2.608-3.003-.788-5.7 5.67v3.7l1.425 4.883v-2.578l3.396-8.279zM28.81 24.898c-.061 0-3.67.91-3.67.91l-3.578 2.971H19.62l5.913-3.881h3.276z" fill="#3A3A3A"/><path d="M33.632 22.38l1.455 2.336-1.728.91-6.43-2.639-.151-1.789 3.578.243 3.276.94z" fill="#79A281"/><path d="M33.601 24.2l-.576.425-.06-.091.636-.485.91.515-.06.121-.85-.485z" fill="#3A3A3A"/><path d="M19.47 18.59l6.883 1.728v3.973l-2.638-1-5.156-2.639.91-2.062z" fill="#8FC19A"/><path d="M28.051 19.287l-3.093-3.063.091-2.85 3.002 5.913z" fill="#7AA383"/><path d="M26.93 20.44l-1.85-7.946L10.493 0l2.153 5.944 8.491 8.188 5.793 6.308z" fill="#CCE2D2"/><path d="M10.28 6.095l5.308 6.066 5.55 1.97L9.794 3.155l.486 2.941z" fill="#ACD2B4"/><path d="M2.911 12.676l5.914 1.608 4.792 4.73-5.095-1.516-1.335-.91-4.276-3.912z" fill="#393839"/><path d="M18.529 21.865l-.121 1-5.671-.515-4.489-2.426 10.28 1.941z" fill="#ACD2B4"/><path d="M16.891 23.958l-2.274-.213-3.488-1.122 7.491.273 7.308.607.85 1.577-1.82-.334-3.973-.364-2.88-1.092-1.214.668z" fill="#678A6F"/><path d="M5.49 16.528l12.433 3.79 5.792 2.972-5.307-.424-6.763-2.032-6.156-4.306z" fill="#CCE1D1"/><path d="M4.246 12.312l5.003 3.852 4.367 2.85 4.944 1.638.91-2.062L.787 7.4l3.458 4.912z" fill="#78A381"/><path d="M0 3.154l5.428 7.43L19.47 18.59l7.46 1.85-5.792-6.308L0 3.154z" fill="#393839"/><path d="M26.353 24.26v-3.942l.577.122v.121l3.426.88-2.972.424 2.366 1-2.366.061 3.73 1.486 2.245 1.213.121.516-3.548-1.243h-3.154l-.425-.637z" fill="#CCE1D1"/><path d="M35.087 26.747l-.91.789h-.94l.425-.728-.303-1.183 1.728-.91v2.032z" fill="#3A3A3A"/><path d="M14.981 34.086l.667.85-.151.212.485 4.852-3.093-5.883 2.638-6.247 5.459-3.488 4.549.485v.03l-7.46 4.883-.637-.94-2.457 5.246z" fill="#CDE3D2"/><path d="M20.985 24.382l-10.462 6.55-2.275 2.7.789-2.942 2.365-3.245 6.702-4.155 2.881 1.092z" fill="#8FC19A"/><path d="M18.075 29.78v7.37l.94 2.334-4.034-5.398 2.457-5.246.637.94z" fill="#78A381"/><path d="M7.794 29.052v1.031l1.94-2.608-1.94 1.577z" fill="#3A3A3A"/><path d="M9.795 35.754l.334 2.032-.728-.455v-2.517l.394.94z" fill="#678A6F"/></svg>