<svg version="1.1" id="Layer_1" xmlns="http://www.w3.org/2000/svg" x="0" y="0" viewBox="0 0 368 132" xml:space="preserve"><style>.st0{fill:#78a381}.st1{fill:#acd2b4}.st2{fill:#3a3a3a}.st3{fill:#8fc19a}.st4{fill:#678a6f}.st8{fill:#393839}.st9{fill:#cce1d1}.st11{fill:#5e6977}</style><path class="st11" d="M139.9 106.2c0 3.4-1.7 5.1-5.1 5.1h-5.2V72.4c.5-12.2 6.9-18.1 19.2-18.1 12.7 0 19.1 6.8 19.1 20.5 0 13.8-5.4 21-16.4 21.4-5.1 0-9-2.1-11.6-6.3v16.3zm8.8-19.2c5.6 0 8.4-3.9 8.7-11.8 0-8.2-2.9-12.3-8.8-12.3s-8.7 4.1-8.6 12.3c.3 7.9 3.1 11.8 8.7 11.8zM188 63.3c-6.1 0-8.8 5.1-8.8 11.3v20.8H169V43.1h5.2c3.4 0 5.1 1.8 5.1 5.2v12.2c5.3-6 11.7-7.7 19.4-5 5.7 2.1 8.4 7.5 8.1 16.4v23.6h-10.2V74.6c0-6.9-2.7-11.3-8.6-11.3zM218.9 65.3h-10.3c1.2-7.5 6.6-11.2 16-11.2 11.3 0 17.1 3.7 17.3 11.2v13.8c0 11.2-6.8 16.2-17.9 17-9.8.8-16.7-3.8-16.7-12.8.2-9.8 7.4-12.4 17.8-13.4 4.4-.5 6.7-1.8 6.7-4.1-.2-2.3-2.4-3.5-6.7-3.5-3.6.2-5.6 1.1-6.2 3zm13 13.4v-3.8c-2.4 1-5.2 1.8-8.2 2.5-4.1.8-6.2 2.7-6.2 5.7.2 3.2 1.9 4.8 5.2 4.8 5.7 0 9.2-3.4 9.2-9.2zM255 48.1v47.3h-10.3V43.1h5.3c2.7 0 5 2.3 5 5zM275.8 96.3c-12.4 0-18.8-7.1-19.1-21.1 0-13.9 6.3-20.9 18.9-21.1 9.9 0 15.8 4.4 17.6 13.2H282c-1.2-2.8-3.4-4.2-6.7-4.2-5.4 0-8.1 4.1-8.1 12.2s2.9 12.2 8.6 12.1c2.4 0 4.5-1 6.2-2.9 1-1 2.2-1.5 3.5-1.5h7.8c-1.9 8.2-8 13.6-17.5 13.3zM331.8 75.3c0 14-6.3 21.1-18.7 21.1-12.4 0-18.6-7.1-18.6-21.1 0-14.2 6.2-21.1 18.6-21.1 12.5-.1 18.7 6.9 18.7 21.1zm-26.8 0c.1 7.9 2.8 11.9 8.1 11.9s7.9-4.2 8-12.2c0-7.9-2.6-11.8-7.9-11.8-5.5-.1-8.2 4-8.2 12.1zM362.7 95.4c-3.4-.2-5.1-1.8-5.1-5.1V69.4c-.2-4.2-2.6-6.3-7.1-6.3-4.6 0-6.9 2.1-7 6.3v26H333V71.5c0-11.6 5.9-17.4 17.6-17.4 11.7 0 17.4 5.8 17.4 17.4v23.9h-5.3z"/><g><path class="st1" d="M49.4 77.8l-6.1 2.9 12.6-1 2.4-1.9-.7-1.2z"/><path class="st2" d="M68.5 116.7l2.2-4.9 6 2.8v1.8l-4.1-1.7-.5.9 3.8 1.9 1.6 3.9-3.8-3.2h-.8l.8 9.8-4.8-5.6z"/><path class="st3" d="M61.8 95.6l.9 15.4 6.9 6.7v4.6l-6.2 2.6-3.8-6.8V98.2l1.6-3.1z"/><path class="st2" d="M75.9 100.5l2.3-5.6 6 2.8v1.9l-4-1.8-.5.9 3.6 1.8 1.7 4.1-3.6-3.3h-.8l.7 9.7-5.2-6z"/><path class="st4" d="M71.5 94.5l1.6 4.2 3.6 2.4v3.7l-10 3.8-3.5-7.4-.8-4.8 2.3-1.5z"/><path class="st2" d="M34.7 100.5v12.2l4.7 16.1v-8.5L50.6 93l12.8-8.6-9.9-2.6zM95 82.1c-.2 0-12.1 3-12.1 3l-11.8 9.8h-6.4l19.5-12.8H95z"/><path fill="#79a281" d="M100.1 70.7l10.8 3.1 4.8 7.7-5.7 3-21.2-8.7-.5-5.9z"/><path class="st2" d="M113.6 81.4l-2.8-1.6-1.9 1.4-.2-.3 2.1-1.6 3 1.7z"/><path class="st3" d="M64.2 61.3L86.9 67v13.1l-8.7-3.3-17-8.7z"/><path fill="#7aa383" d="M82.6 44.1l9.9 19.5-10.2-10.1z"/><path fill="#cce2d2" d="M88.8 67.4l-6.1-26.2L34.6 0l7.1 19.6 28 27z"/><path class="st1" d="M32.3 10.4l1.6 9.7 17.5 20 18.3 6.5z"/><path class="st8" d="M9.6 41.8l19.5 5.3 15.8 15.6-16.8-5-4.4-3z"/><path class="st1" d="M27.2 65.7l33.9 6.4-.4 3.3L42 73.7z"/><path class="st4" d="M36.7 74.6l24.7.9 24.1 2 2.8 5.2-6-1.1-13.1-1.2-9.5-3.6-4 2.2-7.5-.7z"/><path class="st9" d="M18.1 54.5l41 12.5 19.1 9.8-17.5-1.4-22.3-6.7z"/><path class="st0" d="M2.6 24.4L14 40.6l16.5 12.7 14.4 9.4 16.3 5.4 3-6.8z"/><path class="st8" d="M0 10.4l17.9 24.5 46.3 26.4 24.6 6.1-19.1-20.8z"/><path class="st9" d="M86.9 67l1.9.4v.4l11.3 2.9-9.8 1.4 7.8 3.3-7.8.2 12.3 4.9 7.4 4 .4 1.7-11.7-4.1H88.3L86.9 80z"/><path class="st2" d="M115.7 81.5v6.7l-3 2.6h-3.1l1.4-2.4-1-3.9z"/><path fill="#cde3d2" d="M84.2 82.1L59.6 98.2l-2.1-3.1-8.1 17.3 2.2 2.8-.5.7 1.6 16-10.2-19.4 8.7-20.6 18-11.5 15 1.6z"/><path class="st3" d="M59.7 76.8l9.5 3.6L34.7 102l-7.5 8.9 2.6-9.7 7.8-10.7z"/><path class="st0" d="M59.6 98.2v24.3l3.1 7.7-13.3-17.8 8.1-17.3z"/><path class="st2" d="M32.1 90.6l-6.4 5.2v3.4z"/><path class="st4" d="M31 114.8l1.3 3.1 1.1 6.7-2.4-1.5z"/></g></svg>