<?xml version="1.0" standalone="no"?>
<!DOCTYPE svg PUBLIC "-//W3C//DTD SVG 20010904//EN"
 "http://www.w3.org/TR/2001/REC-SVG-20010904/DTD/svg10.dtd">
<svg version="1.0" xmlns="http://www.w3.org/2000/svg"
 width="512.000000pt" height="512.000000pt" viewBox="0 0 512.000000 512.000000"
 preserveAspectRatio="xMidYMid meet">
<metadata>
Created by potrace 1.11, written by Peter Selinger 2001-2013
</metadata>
<g transform="translate(0.000000,512.000000) scale(0.100000,-0.100000)"
fill="#000000" stroke="none">
<path d="M2315 5109 c-451 -47 -886 -213 -1250 -478 -667 -485 -1065 -1258
-1065 -2071 0 -843 425 -1637 1135 -2119 706 -480 1617 -573 2395 -246 460
193 865 523 1142 930 523 768 592 1733 181 2560 -438 884 -1339 1443 -2312
1434 -80 -1 -182 -5 -226 -10z m335 -811 c96 -101 219 -230 274 -288 56 -58
180 -188 276 -290 96 -102 213 -225 260 -275 48 -49 131 -137 186 -195 55 -58
143 -150 195 -205 52 -54 139 -147 195 -205 174 -182 469 -493 517 -545 25
-27 43 -53 39 -57 -4 -4 -144 -84 -312 -179 -168 -94 -357 -201 -420 -237 -63
-36 -149 -84 -190 -107 -41 -23 -196 -111 -345 -195 -148 -84 -308 -174 -355
-200 -47 -26 -253 -142 -457 -258 l-373 -210 0 35 c0 38 45 555 85 978 14 143
36 391 50 550 14 160 36 407 50 550 13 143 41 442 60 665 20 223 42 466 50
540 7 74 17 174 20 223 4 48 11 87 15 87 4 0 85 -82 180 -182z"/>
</g>
</svg>
