<svg version="1.0" xmlns="http://www.w3.org/2000/svg" width="682.667" height="682.667" viewBox="0 0 512 512"><path d="M231.5 1.1c-45.1 4.7-88.6 21.3-125 47.8C39.8 97.4 0 174.7 0 256c0 84.3 42.5 163.7 113.5 211.9 70.6 48 161.7 57.3 239.5 24.6 46-19.3 86.5-52.3 114.2-93 52.3-76.8 59.2-173.3 18.1-256C441.5 55.1 351.4-.8 254.1.1c-8 .1-18.2.5-22.6 1zM265 82.2c9.6 10.1 21.9 23 27.4 28.8 5.6 5.8 18 18.8 27.6 29 9.6 10.2 21.3 22.5 26 27.5 4.8 4.9 13.1 13.7 18.6 19.5 5.5 5.8 14.3 15 19.5 20.5 5.2 5.4 13.9 14.7 19.5 20.5 17.4 18.2 46.9 49.3 51.7 54.5 2.5 2.7 4.3 5.3 3.9 5.7-.4.4-14.4 8.4-31.2 17.9-16.8 9.4-35.7 20.1-42 23.7-6.3 3.6-14.9 8.4-19 10.7-4.1 2.3-19.6 11.1-34.5 19.5-14.8 8.4-30.8 17.4-35.5 20-4.7 2.6-25.3 14.2-45.7 25.8l-37.3 21v-3.5c0-3.8 4.5-55.5 8.5-97.8 1.4-14.3 3.6-39.1 5-55 1.4-16 3.6-40.7 5-55 1.3-14.3 4.1-44.2 6-66.5 2-22.3 4.2-46.6 5-54 .7-7.4 1.7-17.4 2-22.3.4-4.8 1.1-8.7 1.5-8.7.4 0 8.5 8.2 18 18.2z"/></svg>