<svg version="1.0" xmlns="http://www.w3.org/2000/svg" width="933.333" height="933.333" viewBox="0 0 700 700"><path d="M344.8 7.7c-24.4 36.1-86.8 130.6-86.5 130.9.2.3 21 10.7 46.1 23.3l45.7 22.8 45.5-22.7c25-12.6 45.8-23 46-23.3C442.2 138.1 351 1 350 1c-.4 0-2.7 3-5.2 6.7z"/><path d="M222.8 190.8c-46.6 69.8-52.3 78.5-51.8 79 .3.4 40.7 20.7 89.8 45.3l89.4 44.6 89.8-44.9 89.9-45-38.9-58.3-38.9-58.4-51 25.5-51 25.5-51.1-25.5-51-25.5-25.2 37.7z"/><path d="M146.8 304.7c-48.9 73.2-63.7 95.8-63 96.5.4.4 60.5 30.6 133.5 67.2L350 534.7l132.6-66.3c73-36.4 133.1-66.7 133.5-67.1.9-.9-75.5-116.3-77-116.3-.4 0-43.2 21.2-94.9 47.1l-94.1 47-94.1-47c-51.8-25.9-94.6-47.1-95.1-47.1s-6.8 8.9-14.1 19.7z"/><path d="M71.8 417.7c-1.3 1.5-60.4 89.8-69 103.1L0 525l175 87.5L350 700l175-87.5L700 525l-35.9-53.9c-19.8-29.7-36.4-54.2-36.9-54.5-.5-.3-63.1 30.5-139 68.5l-138 69L212 485c-76-37.9-138.3-69-138.4-69-.2 0-1 .8-1.8 1.7z"/></svg>