<svg xmlns="http://www.w3.org/2000/svg" width="398.529" height="137.227" viewBox="0 0 373.621 128.65"><path d="M185.744 96.023h-38.748l29.77-53.03h-22.36V32.786h40.03l-29.184 52.791h20.492v10.446zM221.948 70.824c-1.967-3.775-5.051-5.66-9.25-5.66-4.255 0-7.364 1.885-9.33 5.66h18.58zm12.041 4.874c0 1.061-.08 2.121-.24 3.18h-31.178c.69 2.259 1.965 4.071 3.827 5.441 1.86 1.372 3.96 2.055 6.3 2.055 3.241 0 5.928-1.276 8.054-3.827l6.539 8.692c-4.094 3.882-8.96 5.822-14.593 5.822-5.955 0-11.005-2.07-15.151-6.21-4.148-4.138-6.22-9.18-6.22-15.123 0-5.89 2.085-10.904 6.26-15.042 4.172-4.14 9.21-6.21 15.111-6.21 5.9 0 10.925 2.068 15.071 6.2 4.148 4.133 6.22 9.14 6.22 15.022M250.337 75.768c0 2.946 1.036 5.451 3.109 7.514 2.073 2.062 4.572 3.092 7.496 3.092 2.924 0 5.41-1.03 7.456-3.092 2.046-2.063 3.07-4.568 3.07-7.514 0-2.945-1.024-5.45-3.07-7.512-2.046-2.062-4.532-3.093-7.456-3.093-2.924 0-5.423 1.031-7.496 3.093-2.073 2.062-3.11 4.567-3.11 7.512m-10.764 0c0-5.954 2.072-10.99 6.219-15.111 4.147-4.119 9.197-6.18 15.15-6.18 5.902 0 10.927 2.072 15.073 6.22 4.147 4.146 6.22 9.17 6.22 15.071s-2.073 10.925-6.22 15.073c-4.146 4.146-9.171 6.22-15.072 6.22-3.828 0-7.363-.932-10.605-2.792v24.482h-10.765V75.768zM298.502 95.864h-10.765V32.787h10.765v24.4c3.295-1.805 6.83-2.71 10.605-2.71 5.901 0 10.938 2.07 15.111 6.208 4.174 4.14 6.261 9.154 6.261 15.043v20.136h-10.766V75.69c0-2.871-1.041-5.344-3.121-7.416-2.081-2.074-4.564-3.11-7.444-3.11-2.936 0-5.445 1.024-7.525 3.07-2.081 2.047-3.121 4.532-3.121 7.456v20.175zM335.982 54.477h10.765v41.387h-10.765V54.477zm-1.118-9.17c0-1.808.624-3.323 1.874-4.547 1.249-1.222 2.777-1.833 4.585-1.833 1.755 0 3.256.625 4.506 1.873 1.249 1.25 1.875 2.752 1.875 4.507 0 1.807-.614 3.336-1.835 4.585-1.224 1.25-2.74 1.873-4.546 1.873-1.808 0-3.336-.623-4.585-1.873-1.25-1.25-1.874-2.778-1.874-4.585M358.51 60.617c4.172-4.146 9.21-6.22 15.11-6.22v10.766c-2.924 0-5.422 1.024-7.496 3.07-2.072 2.046-3.11 4.533-3.11 7.456v20.175H352.25V75.69c0-5.902 2.085-10.926 6.26-15.072"/><path d="M115.249 76.387l-50.924 25.46L13.4 76.388 0 96.487l64.325 32.163 64.325-32.162-13.401-20.101z" fill="#3f2084"/><path d="M113.462 73.706L99.167 52.265l-34.843 17.42-34.842-17.42-14.294 21.44 49.136 24.57 49.138-24.57z" fill="#49489b"/><path d="M97.38 49.584L83.085 28.143l-18.76 9.381-18.761-9.381-14.295 21.441 33.056 16.528L97.38 49.584z" fill="#5c439e"/><path d="M81.3 25.462L64.325 0 47.35 25.462l16.975 8.488L81.3 25.462z" fill="#804ea3"/></svg>