<?xml version="1.0" encoding="UTF-8"?>
<!DOCTYPE svg PUBLIC "-//W3C//DTD SVG 1.1//EN" "http://www.w3.org/Graphics/SVG/1.1/DTD/svg11.dtd">
<!-- Creator: CorelDRAW X8 -->
<svg xmlns="http://www.w3.org/2000/svg" xml:space="preserve" width="9000px" height="2000px" version="1.1" style="shape-rendering:geometricPrecision; text-rendering:geometricPrecision; image-rendering:optimizeQuality; fill-rule:evenodd; clip-rule:evenodd"
viewBox="0 0 9000 2000"
 xmlns:xlink="http://www.w3.org/1999/xlink">
 <defs>
  <style type="text/css">
   <![CDATA[
    .fil2 {fill:none}
    .fil1 {fill:#00AEE0}
    .fil0 {fill:#01BFD9}
    .fil3 {fill:#222222;fill-rule:nonzero}
   ]]>
  </style>
    <clipPath id="id0">
     <path d="M515 1273l173 -96 -59 -177 8 -24 -122 0 0 297zm114 -273l59 177 62 -35 0 -166 -113 0 -8 24zm8 -24l113 0 0 -75 -90 0 -23 75zm0 0l23 -75 -145 0 0 75 122 0zm-122 -75l145 0 75 -237 15 -9 0 -133 -235 0 0 379zm220 -237l-75 237 90 0 0 -246 -15 9zm-220 -142l235 0 0 -132 -235 132zm371 -208l0 208 102 0 38 -21 -74 -223 -66 36zm102 208l-102 0 0 57 102 -57zm-36 -244l74 223 97 -54 0 -265 -171 96zm171 -96l0 265 135 -76 0 -264 -135 75zm135 -75l0 264 153 98 114 -64 171 108 0 -129 -438 -277zm267 298l-114 64 84 53 201 0 0 -9 -171 -108zm171 -21l0 129 0 9 218 0 -218 -138zm218 138l-218 0 0 127 23 15 167 336 -34 65 0 1 62 -41 0 -503zm-218 127l0 -127 -201 0 201 127zm23 15l-23 -15 0 107 0 217 156 92 34 -65 -167 -336zm-194 207l0 0 171 102 0 -217 -171 115zm-790 447l-47 -141 -173 96 0 179 210 0 25 -13 0 -112 -15 -9zm-47 -141l47 141 15 9 0 -185 -62 35zm37 275l-210 0 102 61 108 -61zm0 0l-108 61 133 79 0 -140 -25 0zm25 -125l0 112 96 -54 -96 -58zm0 112l-25 13 25 0 0 -13zm0 0l0 13 136 0 0 -44 -40 -23 -96 54zm136 13l-136 0 0 140 136 81 0 -221zm0 -44l0 44 75 0 -75 -44zm75 44l-75 0 0 221 372 220 438 -295 0 -146 -176 0 -262 177 -135 -80 -162 -97zm660 -67l-101 67 176 0 0 -20 -75 -47zm75 67l0 146 128 -85 -96 -61 -32 0zm32 0l186 0 0 -179 -129 -81 -66 126 -23 16 0 98 32 20zm0 0l-32 -20 0 20 32 0zm186 0l-186 0 96 61 90 -61zm-218 -20l0 -98 -75 51 75 47zm-75 -47l75 -51 0 -198 -438 -278 0 297 363 230zm75 -249l0 198 23 -16 66 -126 -89 -56zm-573 -203l0 -300 -66 -39 -24 -72 -45 0 -102 57 0 310 235 0 0 46 2 -2zm-66 -339l66 39 0 -111 -90 0 24 72zm-24 -72l90 0 0 -75 -97 54 7 21zm0 0l-7 -21 -38 21 45 0zm88 367l-235 0 0 76 181 0 54 -30 0 -46zm-54 76l-181 101 0 297 237 -133 0 -297 -2 2 0 30 -54 0zm-181 101l181 -101 -181 0 0 101zm181 -101l54 0 0 -30 -54 30z"/>
    </clipPath>
 </defs>
 <g id="Layer_x0020_1">
  <metadata id="CorelCorpID_0Corel-Layer"/>
  <g id="_346351400">
   <path class="fil0" d="M515 1273l173 -96 -59 -177 8 -24 -122 0 0 297zm114 -273l59 177 62 -35 0 -166 -113 0 -8 24zm8 -24l113 0 0 -75 -90 0 -23 75zm0 0l23 -75 -145 0 0 75 122 0zm-122 -75l145 0 75 -237 15 -9 0 -133 -235 0 0 379zm220 -237l-75 237 90 0 0 -246 -15 9zm-220 -142l235 0 0 -132 -235 132zm371 -208l0 208 102 0 38 -21 -74 -223 -66 36zm102 208l-102 0 0 57 102 -57zm-36 -244l74 223 97 -54 0 -265 -171 96zm171 -96l0 265 135 -76 0 -264 -135 75zm135 -75l0 264 153 98 114 -64 171 108 0 -129 -438 -277zm267 298l-114 64 84 53 201 0 0 -9 -171 -108zm171 -21l0 129 0 9 218 0 -218 -138zm218 138l-218 0 0 127 23 15 167 336 -34 65 0 1 62 -41 0 -503zm-218 127l0 -127 -201 0 201 127zm23 15l-23 -15 0 107 0 217 156 92 34 -65 -167 -336zm-194 207l0 0 171 102 0 -217 -171 115zm-790 447l-47 -141 -173 96 0 179 210 0 25 -13 0 -112 -15 -9zm-47 -141l47 141 15 9 0 -185 -62 35zm37 275l-210 0 102 61 108 -61zm0 0l-108 61 133 79 0 -140 -25 0zm25 -125l0 112 96 -54 -96 -58zm0 112l-25 13 25 0 0 -13zm0 0l0 13 136 0 0 -44 -40 -23 -96 54zm136 13l-136 0 0 140 136 81 0 -221zm0 -44l0 44 75 0 -75 -44zm75 44l-75 0 0 221 372 220 438 -295 0 -146 -176 0 -262 177 -135 -80 -162 -97zm660 -67l-101 67 176 0 0 -20 -75 -47zm75 67l0 146 128 -85 -96 -61 -32 0zm32 0l186 0 0 -179 -129 -81 -66 126 -23 16 0 98 32 20zm0 0l-32 -20 0 20 32 0zm186 0l-186 0 96 61 90 -61zm-218 -20l0 -98 -75 51 75 47zm-75 -47l75 -51 0 -198 -438 -278 0 297 363 230zm75 -249l0 198 23 -16 66 -126 -89 -56zm-573 -203l0 -300 -66 -39 -24 -72 -45 0 -102 57 0 310 235 0 0 46 2 -2zm-66 -339l66 39 0 -111 -90 0 24 72zm-24 -72l90 0 0 -75 -97 54 7 21zm0 0l-7 -21 -38 21 45 0zm88 367l-235 0 0 76 181 0 54 -30 0 -46zm-54 76l-181 101 0 297 237 -133 0 -297 -2 2 0 30 -54 0zm-181 101l181 -101 -181 0 0 101zm181 -101l54 0 0 -30 -54 30z"/>
   <g style="clip-path:url(#id0)">
    <g>
     <rect class="fil1" x="515" y="-129" width="743" height="2022"/>
    </g>
   </g>
   <path class="fil2" d="M515 1273l173 -96 -59 -177 8 -24 -122 0 0 297zm114 -273l59 177 62 -35 0 -166 -113 0 -8 24zm8 -24l113 0 0 -75 -90 0 -23 75zm0 0l23 -75 -145 0 0 75 122 0zm-122 -75l145 0 75 -237 15 -9 0 -133 -235 0 0 379zm220 -237l-75 237 90 0 0 -246 -15 9zm-220 -142l235 0 0 -132 -235 132zm371 -208l0 208 102 0 38 -21 -74 -223 -66 36zm102 208l-102 0 0 57 102 -57zm-36 -244l74 223 97 -54 0 -265 -171 96zm171 -96l0 265 135 -76 0 -264 -135 75zm135 -75l0 264 153 98 114 -64 171 108 0 -129 -438 -277zm267 298l-114 64 84 53 201 0 0 -9 -171 -108zm171 -21l0 129 0 9 218 0 -218 -138zm218 138l-218 0 0 127 23 15 167 336 -34 65 0 1 62 -41 0 -503zm-218 127l0 -127 -201 0 201 127zm23 15l-23 -15 0 107 0 217 156 92 34 -65 -167 -336zm-194 207l0 0 171 102 0 -217 -171 115zm-790 447l-47 -141 -173 96 0 179 210 0 25 -13 0 -112 -15 -9zm-47 -141l47 141 15 9 0 -185 -62 35zm37 275l-210 0 102 61 108 -61zm0 0l-108 61 133 79 0 -140 -25 0zm25 -125l0 112 96 -54 -96 -58zm0 112l-25 13 25 0 0 -13zm0 0l0 13 136 0 0 -44 -40 -23 -96 54zm136 13l-136 0 0 140 136 81 0 -221zm0 -44l0 44 75 0 -75 -44zm75 44l-75 0 0 221 372 220 438 -295 0 -146 -176 0 -262 177 -135 -80 -162 -97zm660 -67l-101 67 176 0 0 -20 -75 -47zm75 67l0 146 128 -85 -96 -61 -32 0zm32 0l186 0 0 -179 -129 -81 -66 126 -23 16 0 98 32 20zm0 0l-32 -20 0 20 32 0zm186 0l-186 0 96 61 90 -61zm-218 -20l0 -98 -75 51 75 47zm-75 -47l75 -51 0 -198 -438 -278 0 297 363 230zm75 -249l0 198 23 -16 66 -126 -89 -56zm-573 -203l0 -300 -66 -39 -24 -72 -45 0 -102 57 0 310 235 0 0 46 2 -2zm-66 -339l66 39 0 -111 -90 0 24 72zm-24 -72l90 0 0 -75 -97 54 7 21zm0 0l-7 -21 -38 21 45 0zm88 367l-235 0 0 76 181 0 54 -30 0 -46zm-54 76l-181 101 0 297 237 -133 0 -297 -2 2 0 30 -54 0zm-181 101l181 -101 -181 0 0 101zm181 -101l54 0 0 -30 -54 30z"/>
   <path class="fil3" d="M2214 1346l0 -772 161 0c56,0 98,3 125,8 27,6 50,16 69,30 25,18 44,42 58,71 13,28 20,60 20,94 0,41 -10,75 -29,102 -20,28 -48,47 -85,58 45,7 81,27 108,61 26,34 40,77 40,129 0,31 -6,60 -17,88 -12,28 -27,52 -47,73 -22,21 -49,36 -81,45 -32,9 -86,13 -161,13l-161 0zm90 -362l0 282 71 0c49,0 84,-2 106,-6 21,-4 38,-10 52,-20 15,-11 28,-27 37,-47 9,-20 13,-42 13,-66 0,-28 -5,-53 -16,-74 -11,-20 -27,-37 -47,-48 -13,-8 -27,-13 -43,-16 -16,-3 -41,-5 -75,-5l-27 0 -71 0zm0 -330l0 258 71 0c65,0 111,-10 138,-29 27,-18 40,-51 40,-96 0,-49 -12,-84 -37,-104 -25,-19 -72,-29 -141,-29l-71 0zm851 396c-3,-42 -17,-75 -43,-98 -25,-23 -60,-35 -104,-35 -40,0 -74,12 -101,36 -26,24 -42,57 -46,97l294 0zm88 67l-382 0 0 7c0,52 15,94 44,126 30,32 68,48 116,48 32,0 61,-9 87,-27 26,-17 49,-43 69,-78l63 42c-24,43 -55,76 -93,99 -37,22 -81,33 -131,33 -73,0 -132,-25 -178,-73 -45,-49 -68,-112 -68,-191 0,-76 23,-138 68,-186 45,-48 103,-72 173,-72 72,0 128,23 170,68 41,46 62,109 62,188l0 16zm125 229l0 -483 81 0 0 75c20,-31 45,-54 75,-69 29,-15 63,-23 101,-23 57,0 101,15 133,45 32,31 48,73 48,127l0 328 -84 0 0 -284c0,-49 -10,-85 -31,-109 -20,-24 -52,-36 -95,-36 -25,0 -47,5 -67,14 -20,9 -37,21 -51,38 -10,13 -17,27 -21,43 -5,16 -7,44 -7,85l0 249 -82 0zm971 -240c0,-54 -15,-97 -44,-131 -30,-33 -69,-49 -117,-49 -49,0 -88,15 -116,46 -28,30 -42,73 -42,128 0,58 14,103 42,135 28,32 68,47 119,47 49,0 88,-15 116,-46 28,-31 42,-75 42,-130zm80 -243l0 475c0,52 -4,89 -11,112 -7,22 -18,42 -34,59 -23,25 -50,43 -83,55 -32,12 -70,18 -112,18 -73,0 -130,-17 -171,-51 -41,-33 -63,-80 -64,-142l93 0 0 7c0,36 12,64 37,84 25,19 60,29 106,29 33,0 61,-5 85,-16 23,-11 41,-27 53,-48 8,-12 13,-26 16,-41 3,-16 5,-39 5,-69l0 -37 0 -44c-19,35 -43,61 -73,80 -30,18 -65,27 -102,27 -69,0 -125,-23 -168,-71 -42,-47 -63,-109 -63,-187 0,-79 20,-141 62,-188 41,-46 96,-69 165,-69 40,0 75,9 105,27 30,18 54,45 72,80l0 -90 82 0zm168 483l0 -818 83 0 0 554 233 -219 110 0 -241 221 263 262 -116 0 -249 -255 0 255 -83 0zm901 -236c0,-55 -15,-99 -44,-132 -30,-33 -69,-50 -117,-50 -49,0 -88,15 -115,46 -28,31 -42,73 -42,128 0,59 14,104 42,135 28,32 67,48 119,48 49,0 88,-16 115,-47 28,-30 42,-73 42,-128zm80 -247l0 483 -80 0 0 -87c-19,35 -44,62 -74,80 -30,18 -64,28 -101,28 -69,0 -125,-24 -167,-72 -43,-48 -64,-111 -64,-189 0,-79 21,-143 62,-190 41,-47 96,-70 165,-70 40,0 76,9 105,27 30,18 54,46 72,81l0 -91 82 0zm170 483l0 -818 84 0 0 818 -84 0zm242 -715c0,-17 6,-31 18,-43 11,-12 26,-17 43,-17 16,0 30,5 42,18 12,11 18,26 18,43 0,16 -6,31 -18,42 -11,12 -26,18 -42,18 -17,0 -32,-6 -43,-18 -12,-11 -18,-26 -18,-43zm19 715l0 -483 84 0 0 483 -84 0zm207 -81l70 -47c14,25 30,44 51,57 20,13 44,19 72,19 27,0 49,-6 66,-20 17,-13 25,-31 25,-52 0,-17 -6,-31 -17,-43 -12,-11 -31,-21 -59,-31l-14 -4c-117,-41 -176,-92 -176,-152 0,-43 16,-78 48,-105 31,-28 72,-41 123,-41 42,0 78,8 108,25 29,17 51,40 64,71l-67 41c-10,-22 -24,-39 -44,-51 -19,-12 -41,-18 -66,-18 -25,0 -44,7 -60,20 -15,14 -23,31 -23,52 0,30 32,55 96,75 12,4 22,7 29,9 52,17 89,36 109,58 21,21 31,50 31,85 0,46 -16,83 -49,111 -32,28 -75,43 -127,43 -45,0 -83,-9 -115,-26 -31,-16 -56,-42 -75,-76zm787 -419l144 347 130 -330 93 0 -215 513 -159 -370 -158 370 -216 -513 92 0 129 330 146 -347 14 0zm793 204c-3,-42 -17,-75 -42,-98 -26,-23 -61,-35 -105,-35 -40,0 -74,12 -100,36 -27,24 -42,57 -47,97l294 0zm89 67l-383 0 0 7c0,52 15,94 45,126 29,32 68,48 115,48 32,0 62,-9 88,-27 26,-17 49,-43 69,-78l63 42c-25,43 -56,76 -93,99 -38,22 -81,33 -131,33 -74,0 -133,-25 -178,-73 -46,-49 -68,-112 -68,-191 0,-76 22,-138 67,-186 45,-48 103,-72 174,-72 71,0 128,23 169,68 42,46 63,109 63,188l0 16zm203 -10c0,57 14,101 43,132 29,32 69,48 119,48 49,0 88,-17 116,-51 28,-33 42,-80 42,-139 0,-53 -14,-94 -41,-124 -28,-30 -66,-45 -114,-45 -50,0 -89,16 -120,49 -30,33 -45,77 -45,130zm-79 -579l82 0 0 426c19,-35 43,-63 72,-81 30,-18 65,-27 104,-27 70,0 125,24 166,71 42,47 62,110 62,189 0,78 -21,141 -63,189 -42,48 -98,72 -168,72 -37,0 -71,-10 -102,-28 -30,-19 -55,-46 -74,-80l0 87 -79 0 0 -818z"/>
  </g>
 </g>
</svg>
