<svg xmlns="http://www.w3.org/2000/svg" width="9000" height="2000" viewBox="0 0 9000 2000" shape-rendering="geometricPrecision" text-rendering="geometricPrecision" image-rendering="optimizeQuality" fill-rule="evenodd" clip-rule="evenodd"><defs><clipPath id="a"><path d="M515 1273l173-96-59-177 8-24H515v297zm114-273l59 177 62-35V976H637l-8 24zm8-24h113v-75h-90l-23 75zm0 0l23-75H515v75h122zm-122-75h145l75-237 15-9V522H515v379zm220-237l-75 237h90V655l-15 9zM515 522h235V390L515 522zm371-208v208h102l38-21-74-223-66 36zm102 208H886v57l102-57zm-36-244l74 223 97-54V182l-171 96zm171-96v265l135-76V107l-135 75zm135-75v264l153 98 114-64 171 108V384l-438-277zm267 298l-114 64 84 53h201v-9l-171-108zm171-21v138h218l-218-138zm218 138h-218v127l23 15 167 336-34 65v1l62-41V522zm-218 127V522h-201l201 127zm23 15l-23-15v324l156 92 34-65-167-336zm-194 207l171 102V756l-171 115zm-790 447l-47-141-173 96v179h210l25-13v-112l-15-9zm-47-141l47 141 15 9v-185l-62 35zm37 275H515l102 61 108-61zm0 0l-108 61 133 79v-140h-25zm25-125v112l96-54-96-58zm0 112l-25 13h25v-13zm0 0v13h136v-44l-40-23-96 54zm136 13H750v140l136 81v-221zm0-44v44h75l-75-44zm75 44h-75v221l372 220 438-295v-146h-176l-262 177-135-80-162-97zm660-67l-101 67h176v-20l-75-47zm75 67v146l128-85-96-61h-32zm32 0h186v-179l-129-81-66 126-23 16v98l32 20zm0 0l-32-20v20h32zm186 0h-186l96 61 90-61zm-218-20v-98l-75 51 75 47zm-75-47l75-51v-198l-438-278v297l363 230zm75-249v198l23-16 66-126-89-56zm-573-203V633l-66-39-24-72h-45l-102 57v310h235v46l2-2zm-66-339l66 39V522h-90l24 72zm-24-72h90v-75l-97 54 7 21zm0 0l-7-21-38 21h45zm88 367H886v76h181l54-30v-46zm-54 76l-181 101v297l237-133V933l-2 2v30h-54zm-181 101l181-101H886v101zm181-101h54v-30l-54 30z"/></clipPath></defs><path d="M515 1273l173-96-59-177 8-24H515v297zm114-273l59 177 62-35V976H637l-8 24zm8-24h113v-75h-90l-23 75zm0 0l23-75H515v75h122zm-122-75h145l75-237 15-9V522H515v379zm220-237l-75 237h90V655l-15 9zM515 522h235V390L515 522zm371-208v208h102l38-21-74-223-66 36zm102 208H886v57l102-57zm-36-244l74 223 97-54V182l-171 96zm171-96v265l135-76V107l-135 75zm135-75v264l153 98 114-64 171 108V384l-438-277zm267 298l-114 64 84 53h201v-9l-171-108zm171-21v138h218l-218-138zm218 138h-218v127l23 15 167 336-34 65v1l62-41V522zm-218 127V522h-201l201 127zm23 15l-23-15v324l156 92 34-65-167-336zm-194 207l171 102V756l-171 115zm-790 447l-47-141-173 96v179h210l25-13v-112l-15-9zm-47-141l47 141 15 9v-185l-62 35zm37 275H515l102 61 108-61zm0 0l-108 61 133 79v-140h-25zm25-125v112l96-54-96-58zm0 112l-25 13h25v-13zm0 0v13h136v-44l-40-23-96 54zm136 13H750v140l136 81v-221zm0-44v44h75l-75-44zm75 44h-75v221l372 220 438-295v-146h-176l-262 177-135-80-162-97zm660-67l-101 67h176v-20l-75-47zm75 67v146l128-85-96-61h-32zm32 0h186v-179l-129-81-66 126-23 16v98l32 20zm0 0l-32-20v20h32zm186 0h-186l96 61 90-61zm-218-20v-98l-75 51 75 47zm-75-47l75-51v-198l-438-278v297l363 230zm75-249v198l23-16 66-126-89-56zm-573-203V633l-66-39-24-72h-45l-102 57v310h235v46l2-2zm-66-339l66 39V522h-90l24 72zm-24-72h90v-75l-97 54 7 21zm0 0l-7-21-38 21h45zm88 367H886v76h181l54-30v-46zm-54 76l-181 101v297l237-133V933l-2 2v30h-54zm-181 101l181-101H886v101zm181-101h54v-30l-54 30z" fill="#01bfd9"/><g clip-path="url(#a)"><path fill="#00aee0" d="M515-129h743v2022H515z"/></g><path d="M515 1273l173-96-59-177 8-24H515v297zm114-273l59 177 62-35V976H637l-8 24zm8-24h113v-75h-90l-23 75zm0 0l23-75H515v75h122zm-122-75h145l75-237 15-9V522H515v379zm220-237l-75 237h90V655l-15 9zM515 522h235V390L515 522zm371-208v208h102l38-21-74-223-66 36zm102 208H886v57l102-57zm-36-244l74 223 97-54V182l-171 96zm171-96v265l135-76V107l-135 75zm135-75v264l153 98 114-64 171 108V384l-438-277zm267 298l-114 64 84 53h201v-9l-171-108zm171-21v138h218l-218-138zm218 138h-218v127l23 15 167 336-34 65v1l62-41V522zm-218 127V522h-201l201 127zm23 15l-23-15v324l156 92 34-65-167-336zm-194 207l171 102V756l-171 115zm-790 447l-47-141-173 96v179h210l25-13v-112l-15-9zm-47-141l47 141 15 9v-185l-62 35zm37 275H515l102 61 108-61zm0 0l-108 61 133 79v-140h-25zm25-125v112l96-54-96-58zm0 112l-25 13h25v-13zm0 0v13h136v-44l-40-23-96 54zm136 13H750v140l136 81v-221zm0-44v44h75l-75-44zm75 44h-75v221l372 220 438-295v-146h-176l-262 177-135-80-162-97zm660-67l-101 67h176v-20l-75-47zm75 67v146l128-85-96-61h-32zm32 0h186v-179l-129-81-66 126-23 16v98l32 20zm0 0l-32-20v20h32zm186 0h-186l96 61 90-61zm-218-20v-98l-75 51 75 47zm-75-47l75-51v-198l-438-278v297l363 230zm75-249v198l23-16 66-126-89-56zm-573-203V633l-66-39-24-72h-45l-102 57v310h235v46l2-2zm-66-339l66 39V522h-90l24 72zm-24-72h90v-75l-97 54 7 21zm0 0l-7-21-38 21h45zm88 367H886v76h181l54-30v-46zm-54 76l-181 101v297l237-133V933l-2 2v30h-54zm-181 101l181-101H886v101zm181-101h54v-30l-54 30z" fill="none"/><path d="M2214 1346V574h161c56 0 98 3 125 8 27 6 50 16 69 30 25 18 44 42 58 71 13 28 20 60 20 94 0 41-10 75-29 102-20 28-48 47-85 58 45 7 81 27 108 61 26 34 40 77 40 129 0 31-6 60-17 88-12 28-27 52-47 73-22 21-49 36-81 45s-86 13-161 13h-161zm90-362v282h71c49 0 84-2 106-6 21-4 38-10 52-20 15-11 28-27 37-47s13-42 13-66c0-28-5-53-16-74-11-20-27-37-47-48-13-8-27-13-43-16s-41-5-75-5h-98zm0-330v258h71c65 0 111-10 138-29 27-18 40-51 40-96 0-49-12-84-37-104-25-19-72-29-141-29h-71zm851 396c-3-42-17-75-43-98-25-23-60-35-104-35-40 0-74 12-101 36-26 24-42 57-46 97h294zm88 67h-382v7c0 52 15 94 44 126 30 32 68 48 116 48 32 0 61-9 87-27 26-17 49-43 69-78l63 42c-24 43-55 76-93 99-37 22-81 33-131 33-73 0-132-25-178-73-45-49-68-112-68-191 0-76 23-138 68-186s103-72 173-72c72 0 128 23 170 68 41 46 62 109 62 188v16zm125 229V863h81v75c20-31 45-54 75-69 29-15 63-23 101-23 57 0 101 15 133 45 32 31 48 73 48 127v328h-84v-284c0-49-10-85-31-109-20-24-52-36-95-36-25 0-47 5-67 14s-37 21-51 38c-10 13-17 27-21 43-5 16-7 44-7 85v249h-82zm971-240c0-54-15-97-44-131-30-33-69-49-117-49-49 0-88 15-116 46-28 30-42 73-42 128 0 58 14 103 42 135s68 47 119 47c49 0 88-15 116-46s42-75 42-130zm80-243v475c0 52-4 89-11 112-7 22-18 42-34 59-23 25-50 43-83 55-32 12-70 18-112 18-73 0-130-17-171-51-41-33-63-80-64-142h93v7c0 36 12 64 37 84 25 19 60 29 106 29 33 0 61-5 85-16 23-11 41-27 53-48 8-12 13-26 16-41 3-16 5-39 5-69v-81c-19 35-43 61-73 80-30 18-65 27-102 27-69 0-125-23-168-71-42-47-63-109-63-187 0-79 20-141 62-188 41-46 96-69 165-69 40 0 75 9 105 27s54 45 72 80v-90h82zm168 483V528h83v554l233-219h110l-241 221 263 262h-116l-249-255v255h-83zm901-236c0-55-15-99-44-132-30-33-69-50-117-50-49 0-88 15-115 46-28 31-42 73-42 128 0 59 14 104 42 135 28 32 67 48 119 48 49 0 88-16 115-47 28-30 42-73 42-128zm80-247v483h-80v-87c-19 35-44 62-74 80s-64 28-101 28c-69 0-125-24-167-72-43-48-64-111-64-189 0-79 21-143 62-190s96-70 165-70c40 0 76 9 105 27 30 18 54 46 72 81v-91h82zm170 483V528h84v818h-84zm242-715c0-17 6-31 18-43 11-12 26-17 43-17 16 0 30 5 42 18 12 11 18 26 18 43 0 16-6 31-18 42-11 12-26 18-42 18-17 0-32-6-43-18-12-11-18-26-18-43zm19 715V863h84v483h-84zm207-81l70-47c14 25 30 44 51 57 20 13 44 19 72 19 27 0 49-6 66-20 17-13 25-31 25-52 0-17-6-31-17-43-12-11-31-21-59-31l-14-4c-117-41-176-92-176-152 0-43 16-78 48-105 31-28 72-41 123-41 42 0 78 8 108 25 29 17 51 40 64 71l-67 41c-10-22-24-39-44-51-19-12-41-18-66-18s-44 7-60 20c-15 14-23 31-23 52 0 30 32 55 96 75 12 4 22 7 29 9 52 17 89 36 109 58 21 21 31 50 31 85 0 46-16 83-49 111-32 28-75 43-127 43-45 0-83-9-115-26-31-16-56-42-75-76zm787-419l144 347 130-330h93l-215 513-159-370-158 370-216-513h92l129 330 146-347h14zm793 204c-3-42-17-75-42-98-26-23-61-35-105-35-40 0-74 12-100 36-27 24-42 57-47 97h294zm89 67h-383v7c0 52 15 94 45 126 29 32 68 48 115 48 32 0 62-9 88-27 26-17 49-43 69-78l63 42c-25 43-56 76-93 99-38 22-81 33-131 33-74 0-133-25-178-73-46-49-68-112-68-191 0-76 22-138 67-186s103-72 174-72 128 23 169 68c42 46 63 109 63 188v16zm203-10c0 57 14 101 43 132 29 32 69 48 119 48 49 0 88-17 116-51 28-33 42-80 42-139 0-53-14-94-41-124-28-30-66-45-114-45-50 0-89 16-120 49-30 33-45 77-45 130zm-79-579h82v426c19-35 43-63 72-81 30-18 65-27 104-27 70 0 125 24 166 71 42 47 62 110 62 189 0 78-21 141-63 189s-98 72-168 72c-37 0-71-10-102-28-30-19-55-46-74-80v87h-79V528z" fill="#222" fill-rule="nonzero"/></svg>