<svg version="1.2" baseProfile="tiny" xmlns="http://www.w3.org/2000/svg" viewBox="0 0 1889.4 627"><path fill="#404041" d="M1873.4 510c-8.9 0-16-7.1-16-16 0-8.7 7.1-16 16-16 8.7 0 16 7.1 16 16 0 8.7-7.3 16-16 16m0-28.9c-7.1 0-12.9 5.8-12.9 12.9s5.8 12.9 12.9 12.9 12.9-5.8 12.9-12.9-5.8-12.9-12.9-12.9m8.1 21.3h-3.7l-3.2-6h-4.2v6h-3.4v-17.6h8.4c3.7 0 6 2.4 6 5.8 0 2.6-1.6 4.5-3.7 5.3l3.8 6.5zm-6.3-9.2c1.3 0 2.6-.8 2.6-2.6 0-2.1-1.1-2.6-2.6-2.6h-5.3v5.3h5.3zM202.7 476.4h41v111.7h71.2v35.8H202.7V476.4zm154.6 74.1v-.5c0-42.3 34.2-76.8 79.7-76.8s79.1 33.9 79.1 76.2v.5c0 42.3-34.2 76.8-79.7 76.8s-79.1-33.9-79.1-76.2m117.2 0v-.5c0-21.3-15.2-39.7-37.9-39.7-22.3 0-37.3 18.1-37.3 39.4v.5c0 21.3 15.2 39.7 37.6 39.7 22.6 0 37.6-18.1 37.6-39.4m91.8 8.7v-82.8h41.5v82c0 21.3 10.8 31.3 27.1 31.3S662 580 662 559.5v-83.1h41.5v81.8c0 47.6-27.1 68.4-69.1 68.4-41.8-.1-68.1-21.2-68.1-67.4m199.8-82.8h56.8c52.6 0 83.3 30.2 83.3 72.8v.5c0 42.6-31 74.1-84.1 74.1h-56V476.4zm57.5 111.2c24.4 0 40.7-13.4 40.7-37.3v-.5c0-23.7-16.3-37.3-40.7-37.3H807v74.9h16.6v.2zm142-111.2h118v35.8h-77.3v25.2h69.9v33.9h-69.9v52.6h-40.7V476.4zm174.8 0h40.7v111.7h71.5v35.8h-112.3V476.4zm219-1.1h39.4l62.8 148.5h-43.9l-10.8-26.3h-56.8l-10.5 26.3h-42.9l62.7-148.5zm36 90.4l-16.3-41.8-16.6 41.8h32.9zm118.9-89.3h69.7c22.6 0 38.1 5.8 48.1 16 8.7 8.4 13.1 19.7 13.1 34.4v.5c0 22.6-12.1 37.6-30.2 45.2l35.2 51.5h-47.3l-29.7-44.7h-17.9V624h-41V476.4zm67.8 70.7c13.9 0 21.8-6.8 21.8-17.4v-.5c0-11.6-8.4-17.4-22.1-17.4H1555V547l27.1.1zm122-70.7h118.6v34.7h-78.1v22.3h70.7v32.3h-70.7v23.4h79.1v34.7h-119.6V476.4zM113.3 567.8c-5.8 12.9-17.9 22.1-33.7 22.1-22.3 0-37.6-18.7-37.6-39.7v-.5c0-21.3 15-39.4 37.3-39.4 16.8 0 29.7 10.3 35 24.4h43.1c-6.8-35.2-37.9-61.3-77.8-61.3-45.4.1-79.6 34.5-79.6 76.8v.5C0 593.1 33.7 627 79.1 627c38.9 0 69.4-25.2 77.3-58.9l-43.1-.3z"/><path fill="#FFF" d="M1774.3 241.1l-112.8-64.7-19.5-8.4-461.4 3.2v234.2h593.6l.1-164.3z"/><path fill="#F38020" d="M1568.9 383.8c5.5-18.9 3.4-36.3-5.8-49.2-8.4-11.8-22.6-18.7-39.7-19.5l-323.6-4.2c-2.1 0-3.9-1.1-5-2.6-1.1-1.6-1.3-3.7-.8-5.8 1.1-3.2 4.2-5.5 7.6-5.8l326.5-4.2c38.6-1.8 80.7-33.1 95.4-71.5l18.7-48.6c.8-2.1 1.1-4.2.5-6.3C1621.8 71 1536.9 0 1435.4 0c-93.6 0-173 60.5-201.4 144.3-18.4-13.7-41.8-21-67-18.7-45 4.5-81 40.5-85.4 85.4-1.1 11.6-.3 22.9 2.4 33.4-73.3 2.1-132 62-132 135.9 0 6.6.5 13.1 1.3 19.7.5 3.2 3.2 5.5 6.3 5.5h597.3c3.4 0 6.6-2.4 7.6-5.8l4.4-15.9z"/><path fill="#FAAE40" d="M1672 175.9c-2.9 0-6 0-8.9.3-2.1 0-3.9 1.6-4.7 3.7l-12.6 43.9c-5.5 18.9-3.4 36.3 5.8 49.2 8.4 11.8 22.6 18.7 39.7 19.5l68.9 4.2c2.1 0 3.9 1.1 5 2.6 1.1 1.6 1.3 3.9.8 5.8-1.1 3.2-4.2 5.5-7.6 5.8l-71.8 4.2c-38.9 1.8-80.7 33.1-95.4 71.5l-5.3 13.4c-1.1 2.6.8 5.3 3.7 5.3H1836c2.9 0 5.5-1.8 6.3-4.7 4.2-15.2 6.6-31.3 6.6-47.8 0-97.5-79.4-176.9-176.9-176.9"/></svg>