<?xml version="1.0" encoding="UTF-8"?>
<svg width="54" height="49" viewBox="0 0 54 49" fill="none" xmlns="http://www.w3.org/2000/svg"><style>.odva-mark{fill:#282C34}@media (prefers-color-scheme:dark){.odva-mark{fill:#E6E8EB}}</style><path class="odva-mark" fill-rule="evenodd" clip-rule="evenodd" d="M44 22c0 12.15-9.85 22-22 22S0 34.15 0 22 9.85 0 22 0s22 9.85 22 22zm-8 0c0 7.732-6.268 14-14 14S8 29.732 8 22 14.268 8 22 8s14 6.268 14 14z" fill="#282C34"/><path class="odva-mark" d="M54 36a3 3 0 11-6 0 3 3 0 016 0zM54 46a3 3 0 11-6 0 3 3 0 016 0z" fill="#282C34"/></svg>
