<svg xmlns="http://www.w3.org/2000/svg" xml:space="preserve" width="194.4" height="68" viewBox="0 0 396 68"><path d="M50.078 9.717a18.7 18.7 0 0 1 6.067 14.918 20.315 20.315 0 0 1-6.109 15.749 24.432 24.432 0 0 1-17.162 5.61H21.322v16.622H8.191V4.44h24.684a25.428 25.428 0 0 1 17.203 5.277zm-9.35 22.772a9.263 9.263 0 0 0 2.95-7.272 8.935 8.935 0 0 0-2.95-7.272 13.008 13.008 0 0 0-8.519-2.452H21.322V35.19h10.887c3.073.16 6.1-.799 8.519-2.701zm66.489-25.057a29.087 29.087 0 0 1 15.375 26.097 29.421 29.421 0 0 1-15.375 26.138 33.87 33.87 0 0 1-31.748 0 29.088 29.088 0 0 1-15.375-26.138A29.09 29.09 0 0 1 75.428 7.515a32.45 32.45 0 0 1 15.874-3.989 32.529 32.529 0 0 1 15.915 3.906zM82.533 17.446a17.915 17.915 0 0 0-6.566 6.69c-5.033 8.87-2.107 20.134 6.607 25.432a16.952 16.952 0 0 0 8.934 2.493c3.122.03 6.19-.819 8.851-2.452a17.816 17.816 0 0 0 6.399-6.732 19.167 19.167 0 0 0 2.369-9.35 18.741 18.741 0 0 0-2.369-9.308 17.912 17.912 0 0 0-6.399-6.69 16.628 16.628 0 0 0-8.851-2.452 17.373 17.373 0 0 0-8.975 2.369zm75.713-1.163a28.812 28.812 0 0 0-8.768-1.621 10.136 10.136 0 0 0-5.402 1.247 4.157 4.157 0 0 0-1.995 3.657 5.112 5.112 0 0 0 3.241 4.696 44.402 44.402 0 0 0 8.851 3.366 76.2 76.2 0 0 1 9.849 3.491 17.492 17.492 0 0 1 6.233 5.236 14.504 14.504 0 0 1 2.743 9.225 15.785 15.785 0 0 1-2.743 9.599 18.157 18.157 0 0 1-8.311 6.109 31.175 31.175 0 0 1-11.719 2.078 40.062 40.062 0 0 1-13.879-2.493 37.42 37.42 0 0 1-11.802-6.815l5.236-10.721a35.395 35.395 0 0 0 10.139 6.399 27.307 27.307 0 0 0 10.472 2.41 11.554 11.554 0 0 0 6.358-1.496 5.236 5.236 0 0 0 1.039-8.02 11.81 11.81 0 0 0-3.906-2.369c-1.579-.609-3.754-1.302-6.524-2.078a73.974 73.974 0 0 1-9.765-3.324 17.156 17.156 0 0 1-6.524-5.07 14.004 14.004 0 0 1-2.743-9.059 15.38 15.38 0 0 1 2.826-9.184 17.905 17.905 0 0 1 7.895-6.067 30.418 30.418 0 0 1 11.802-2.119c3.998 0 7.975.589 11.802 1.745a39.98 39.98 0 0 1 10.306 4.654l-5.194 10.887a44.1 44.1 0 0 0-9.517-4.363zM175.99 4.44h48.62v11.137h-17.786v47.04h-13.131v-47.04H175.99V4.44zm105.924 0-21.193 39.394v18.783H247.59v-18.45L226.064 4.44h13.215l14.877 26.097L268.7 4.44h13.214zm46.251 5.277a18.741 18.741 0 0 1 6.067 14.918 20.318 20.318 0 0 1-6.067 15.749 24.436 24.436 0 0 1-17.328 5.61h-11.76v16.622h-12.924V4.44h24.684a25.385 25.385 0 0 1 17.328 5.277zm-9.35 22.772c1.966-1.89 3-4.55 2.826-7.272a8.935 8.935 0 0 0-2.95-7.272 13.013 13.013 0 0 0-8.311-2.452h-11.303V35.19h10.887a12.716 12.716 0 0 0 8.727-2.701h.124zM340.632 4.44h44.339v10.887h-31.166v12.467h28.008v10.887h-28.008v12.882h32.081v11.054h-45.254V4.44z"/></svg>