<svg xmlns="http://www.w3.org/2000/svg" viewBox="0 0 92.04 48"><defs><style>.cls-1{fill:none}.cls-2{fill:#fff}</style></defs><g id="레이어_2" data-name="레이어 2"><g id="layer_1" data-name="layer 1"><path class="cls-1" d="M.04 0h92v24h-92z"/><path d="M10.08 6.27a4.5 4.5 0 0 1 1.46 3.59 4.89 4.89 0 0 1-1.47 3.79A5.88 5.88 0 0 1 5.94 15H3.16v4H0V5h5.94a6.12 6.12 0 0 1 4.14 1.27Zm-2.25 5.48A2.23 2.23 0 0 0 8.54 10a2.15 2.15 0 0 0-.71-1.75 3.13 3.13 0 0 0-2.05-.59H3.16v4.74h2.62a3.06 3.06 0 0 0 2.05-.65ZM23.83 5.72a7 7 0 0 1 3.7 6.28 7.08 7.08 0 0 1-3.7 6.29 8.15 8.15 0 0 1-7.64 0 7 7 0 0 1-3.7-6.29 7 7 0 0 1 3.69-6.26A7.81 7.81 0 0 1 20 4.78a7.83 7.83 0 0 1 3.83.94Zm-5.94 2.41a4.31 4.31 0 0 0-1.58 1.61 4.54 4.54 0 0 0 1.59 6.12 4.08 4.08 0 0 0 2.15.6 4 4 0 0 0 2.13-.59 4.29 4.29 0 0 0 1.54-1.62 4.61 4.61 0 0 0 .57-2.25 4.51 4.51 0 0 0-.57-2.24 4.31 4.31 0 0 0-1.54-1.61 4 4 0 0 0-2.13-.59 4.18 4.18 0 0 0-2.16.57ZM36.11 7.85A6.93 6.93 0 0 0 34 7.46a2.44 2.44 0 0 0-1.3.3 1 1 0 0 0-.48.88A1.23 1.23 0 0 0 33 9.77a10.69 10.69 0 0 0 2.13.81 18.35 18.35 0 0 1 2.37.84 4.21 4.21 0 0 1 1.5 1.26 3.49 3.49 0 0 1 .66 2.22 3.8 3.8 0 0 1-.66 2.31 4.37 4.37 0 0 1-2 1.47 7.5 7.5 0 0 1-2.82.5 9.64 9.64 0 0 1-3.34-.6A9 9 0 0 1 28 16.94l1.26-2.58a8.52 8.52 0 0 0 2.44 1.54 6.57 6.57 0 0 0 2.52.58 2.78 2.78 0 0 0 1.53-.36 1.26 1.26 0 0 0 .25-1.93 2.84 2.84 0 0 0-.94-.57q-.57-.22-1.57-.5a17.8 17.8 0 0 1-2.35-.8 4.13 4.13 0 0 1-1.57-1.22 3.37 3.37 0 0 1-.66-2.18 3.7 3.7 0 0 1 .68-2.21 4.31 4.31 0 0 1 1.9-1.46 7.32 7.32 0 0 1 2.84-.51 9.82 9.82 0 0 1 2.84.42 9.62 9.62 0 0 1 2.48 1.12L38.4 8.9a10.61 10.61 0 0 0-2.29-1.05ZM40.38 5h11.7v2.68H47.8V19h-3.16V7.68h-4.26ZM65.87 5l-5.1 9.48V19h-3.16v-4.44L52.43 5h3.18l3.58 6.28L62.69 5ZM77 6.27a4.51 4.51 0 0 1 1.46 3.59A4.89 4.89 0 0 1 77 13.65 5.88 5.88 0 0 1 72.83 15H70v4h-3.11V5h5.94A6.11 6.11 0 0 1 77 6.27Zm-2.25 5.48a2.23 2.23 0 0 0 .68-1.75 2.15 2.15 0 0 0-.71-1.75 3.13 3.13 0 0 0-2-.59H70v4.74h2.62a3.06 3.06 0 0 0 2.1-.65ZM80 5h10.67v2.62h-7.5v3h6.74v2.62h-6.74v3.1h7.72V19H80Z"/><path class="cls-1" d="M.04 24h92v24h-92z"/><path class="cls-2" d="M10.08 30.27a4.5 4.5 0 0 1 1.46 3.59 4.89 4.89 0 0 1-1.47 3.79A5.88 5.88 0 0 1 5.94 39H3.16v4H0V29h5.94a6.12 6.12 0 0 1 4.14 1.27Zm-2.25 5.48A2.23 2.23 0 0 0 8.54 34a2.15 2.15 0 0 0-.71-1.75 3.13 3.13 0 0 0-2.05-.59H3.16v4.74h2.62a3.06 3.06 0 0 0 2.05-.65ZM23.83 29.72a7.15 7.15 0 0 1 0 12.55 8.15 8.15 0 0 1-7.64 0 7 7 0 0 1-3.7-6.27 7 7 0 0 1 3.69-6.26 7.81 7.81 0 0 1 3.82-.96 7.83 7.83 0 0 1 3.83.94Zm-5.94 2.41a4.31 4.31 0 0 0-1.58 1.61 4.54 4.54 0 0 0 1.59 6.12 4.08 4.08 0 0 0 2.15.6 4 4 0 0 0 2.13-.59 4.29 4.29 0 0 0 1.54-1.62 4.61 4.61 0 0 0 .57-2.25 4.51 4.51 0 0 0-.57-2.24 4.31 4.31 0 0 0-1.54-1.61 4 4 0 0 0-2.13-.59 4.18 4.18 0 0 0-2.16.57Z"/><path class="cls-2" d="M36.11 31.85a6.93 6.93 0 0 0-2.11-.39 2.44 2.44 0 0 0-1.3.3 1 1 0 0 0-.48.88 1.23 1.23 0 0 0 .78 1.13 10.69 10.69 0 0 0 2.13.81 18.35 18.35 0 0 1 2.37.84 4.21 4.21 0 0 1 1.5 1.26 3.49 3.49 0 0 1 .66 2.22 3.8 3.8 0 0 1-.66 2.31 4.37 4.37 0 0 1-2 1.47 7.5 7.5 0 0 1-2.82.5 9.64 9.64 0 0 1-3.34-.6A9 9 0 0 1 28 40.94l1.26-2.58a8.52 8.52 0 0 0 2.44 1.54 6.57 6.57 0 0 0 2.52.58 2.78 2.78 0 0 0 1.53-.36 1.26 1.26 0 0 0 .25-1.93 2.84 2.84 0 0 0-.94-.57q-.57-.22-1.57-.5a17.8 17.8 0 0 1-2.35-.8 4.13 4.13 0 0 1-1.57-1.22 3.37 3.37 0 0 1-.66-2.18 3.7 3.7 0 0 1 .68-2.21 4.31 4.31 0 0 1 1.9-1.46 7.32 7.32 0 0 1 2.84-.51 9.82 9.82 0 0 1 2.84.42 9.62 9.62 0 0 1 2.48 1.12L38.4 32.9a10.61 10.61 0 0 0-2.29-1.05ZM40.38 29h11.7v2.68H47.8V43h-3.16V31.68h-4.26ZM65.87 29l-5.1 9.48V43h-3.16v-4.44L52.43 29h3.18l3.58 6.28 3.5-6.28ZM77 30.27a4.51 4.51 0 0 1 1.46 3.59A4.89 4.89 0 0 1 77 37.65 5.88 5.88 0 0 1 72.83 39H70v4h-3.11V29h5.94A6.11 6.11 0 0 1 77 30.27Zm-2.25 5.48a2.23 2.23 0 0 0 .68-1.75 2.15 2.15 0 0 0-.71-1.75 3.13 3.13 0 0 0-2-.59H70v4.74h2.62a3.06 3.06 0 0 0 2.1-.65ZM80 29h10.67v2.62h-7.5v3h6.74v2.62h-6.74v3.1h7.72V43H80Z"/></g></g></svg>