<svg height="200" viewBox="0 0 590 200" width="590" xmlns="http://www.w3.org/2000/svg"><path d="m0 0h590v200h-590z" fill="none"/><path d="m145.07 165.92v4.08h-3.18v-30.16h3.18v13.1c1.74-2.56 4.26-4.75 8.19-4.75 5.12 0 10.21 4.05 10.21 11.08v.08c0 7-5 11.12-10.21 11.12a9.65 9.65 0 0 1 -8.19-4.55zm15.13-6.53v-.08c0-5.05-3.47-8.27-7.52-8.27a8 8 0 0 0 -7.73 8.23v.08a8 8 0 0 0 7.73 8.27c4.13 0 7.52-3.06 7.52-8.23z"/><path d="m183.76 148.64h3.39l-9 22.08c-1.82 4.42-3.89 6-7.11 6a9.73 9.73 0 0 1 -4.55-1.07l1.07-2.52a6.69 6.69 0 0 0 3.35.78c1.9 0 3.1-1 4.38-4l-9.71-21.29h3.51l7.77 17.82z"/><path d="m202.31 165.3 2.36-2c1.78 2.68 3.6 4.13 6.61 4.13 3.27 0 5.67-2.36 5.67-6.94v-19.41h3.3v19.34c0 3.39-1 6-2.64 7.61a8.89 8.89 0 0 1 -6.37 2.4 9.91 9.91 0 0 1 -8.93-5.13z"/><path d="m226.15 159.39v-.08c0-6.16 4.34-11.12 10.26-11.12 6.32 0 10 5 10 11.28a8.62 8.62 0 0 1 0 1h-17c.45 4.63 3.72 7.23 7.52 7.23a8.84 8.84 0 0 0 6.74-3l2 1.78a11 11 0 0 1 -8.81 4c-5.86.03-10.71-4.48-10.71-11.09zm17-1.24c-.33-3.89-2.56-7.27-6.82-7.27-3.72 0-6.53 3.09-6.94 7.27z"/><path d="m252.28 164.35v-12.9h-3v-2.81h3v-6.45h3.18v6.45h6.78v2.81h-6.78v12.49c0 2.6 1.45 3.55 3.6 3.55a6.68 6.68 0 0 0 3.1-.74v2.73a8 8 0 0 1 -3.85.91c-3.43 0-6.03-1.7-6.03-6.04z"/><path d="m267.46 141.08h12.33c3.3 0 5.91.95 7.56 2.56a6.42 6.42 0 0 1 1.86 4.63v.08a7 7 0 0 1 -4.59 6.7c3.43 1 6.2 3 6.2 7v.08c0 5-4.17 7.9-10.5 7.9h-12.86zm18.44 7.64c0-2.85-2.27-4.71-6.4-4.71h-8.81v10h8.56c3.92 0 6.65-1.77 6.65-5.16zm-6.07 8.15h-9.14v10.21h9.71c4.39 0 7.12-1.94 7.12-5.17v-.08c0-3.14-2.65-4.96-7.69-4.96z"/><path d="m296.86 148.64h3.14v5.58c1.57-3.55 4.68-6.12 8.73-5.95v3.43h-.25c-4.67 0-8.48 3.35-8.48 9.8v8.5h-3.18z"/><path d="m311.31 163.81v-.08c0-4.51 3.72-6.9 9.14-6.9a22.57 22.57 0 0 1 6.57.91v-.74c0-3.84-2.36-5.83-6.37-5.83a15 15 0 0 0 -6.49 1.57l-1-2.6a17.58 17.58 0 0 1 7.77-1.78c3 0 5.34.79 6.91 2.36a8.42 8.42 0 0 1 2.19 6.24v13.04h-3.03v-3.23a9.38 9.38 0 0 1 -7.73 3.68c-3.95.02-7.96-2.25-7.96-6.64zm15.75-1.65v-2.07a22.46 22.46 0 0 0 -6.28-.91c-4 0-6.24 1.74-6.24 4.43v.08c0 2.69 2.48 4.26 5.37 4.26 3.93.05 7.15-2.4 7.15-5.79z"/><path d="m336.5 140.46h3.64v3.54h-3.64zm.21 8.18h3.18v21.36h-3.18z"/><path d="m346.77 148.64h3.23v3.72a8.09 8.09 0 0 1 7.31-4.17c5.17 0 8.19 3.47 8.19 8.55v13.26h-3.18v-12.47c0-4-2.15-6.45-5.91-6.45s-6.41 2.69-6.41 6.7v12.22h-3.19z"/><path d="m370.07 167.29 1.61-2.28a12.49 12.49 0 0 0 7.4 2.73c2.56 0 4.43-1.32 4.43-3.39v-.08c0-2.15-2.53-3-5.34-3.76-3.35-1-7.07-2.11-7.07-6v-.08c0-3.68 3.06-6.12 7.28-6.12a14.68 14.68 0 0 1 7.69 2.35l-1.45 2.4a12.08 12.08 0 0 0 -6.32-2.06c-2.53 0-4.14 1.32-4.14 3.1v.08c0 2 2.65 2.81 5.5 3.68 3.31 1 6.86 2.27 6.86 6.12v.02c0 4-3.35 6.41-7.6 6.41a14.73 14.73 0 0 1 -8.85-3.12z"/><path d="m370.6 92.45v-.22c0-13.39 10.19-19.57 24.73-19.57a43.58 43.58 0 0 1 15 2.52v-1c0-7.21-4.47-11.21-13.17-11.21a45.13 45.13 0 0 0 -16.94 3.32l-4.35-13.29a54.06 54.06 0 0 1 23.81-4.92c9.5 0 16.37 2.51 20.72 6.86 4.6 4.57 6.6 11.32 6.6 19.55v35.58h-16.79v-6.63c-4.23 4.69-10.07 7.78-18.54 7.78-11.57 0-21.07-6.64-21.07-18.77zm40-4v-3.09a27.07 27.07 0 0 0 -11.11-2.29c-7.44 0-12 3-12 8.47v.23c0 4.69 3.89 7.43 9.5 7.43 8.07 0 13.57-4.46 13.57-10.75zm28-39.69h17.4v8.69c4-5.15 9.15-9.84 18-9.84 13.16 0 20.83 8.7 20.83 22.77v39.69h-17.4v-34.2c0-8.24-3.89-12.47-10.53-12.47s-10.9 4.23-10.9 12.47v34.2h-17.4zm66.19 43.69v-.22c0-13.39 10.19-19.57 24.72-19.57a43.54 43.54 0 0 1 15 2.52v-1c0-7.21-4.46-11.21-13.16-11.21a45.19 45.19 0 0 0 -17 3.32l-4.35-13.29a54.13 54.13 0 0 1 23.81-4.92c9.51 0 16.37 2.51 20.73 6.86 4.57 4.58 6.63 11.33 6.63 19.56v35.58h-16.78v-6.63c-4.24 4.69-10.08 7.78-18.55 7.78-11.56-.01-21.06-6.65-21.06-18.78zm40-4v-3.09a27.05 27.05 0 0 0 -11.1-2.29c-7.45 0-12 3-12 8.47v.23c0 4.69 3.89 7.43 9.5 7.43 8.04 0 13.54-4.46 13.54-10.75zm-335.12 24-8.82-7.89a43.66 43.66 0 0 1 -23.85 6.89c-24.73 0-42.47-18.42-42.47-41.19v-.26c0-22.76 18-41.41 42.7-41.41s42.45 18.41 42.45 41.21v.2a41 41 0 0 1 -7.1 23l8.25 7zm-21.93-19.45-13.05-11.1 11.22-12.58 13.16 11.89a27.92 27.92 0 0 0 2.18-11v-.21c0-13.72-10.07-25.17-24.27-25.17s-24 11.22-24 24.94v.23c0 13.73 10.07 25.17 24.27 25.17a24.19 24.19 0 0 0 10.49-2.17zm37.14-13.27v-.23c0-17.62 14.19-31.92 33.31-31.92s33.08 14.07 33.08 31.69v.23c0 17.62-14.19 31.92-33.31 31.92s-33.08-14.05-33.08-31.66zm49.22 0v-.23c0-9-6.52-16.93-16.14-16.93-10 0-15.91 7.66-15.91 16.7v.23c0 9 6.52 16.93 16.14 16.93 9.96.03 15.91-7.64 15.91-16.67zm22.82-.23v-.2c0-20.48 13.4-31.69 27.94-31.69 9.27 0 15 4.23 19.11 9.15v-30.2h17.4v83.51h-17.37v-8.81c-4.23 5.72-10.07 10-19.11 10-14.34-.04-27.97-11.26-27.97-31.73zm47.28 0v-.2c0-10.18-6.75-16.93-14.88-16.93s-15 6.63-15 16.93v.23c0 10.18 6.87 16.93 15 16.93s14.88-6.75 14.88-16.93z"/><path d="m30 30h80v80h-80z"/><g fill="#fff"><path d="m40 95h30v5h-30z"/><path d="m66 70.76-3.3-3a16.32 16.32 0 0 1 -8.89 2.56c-9.23.05-15.81-6.82-15.81-15.32v-.09c0-8.5 6.71-15.46 15.95-15.46s15.86 6.87 15.86 15.37v.09a15.41 15.41 0 0 1 -2.65 8.59l3.08 2.6zm-8.17-7.26-4.83-4.15 4.19-4.7 4.91 4.45a10.38 10.38 0 0 0 .82-4.1v-.09a9.09 9.09 0 0 0 -9.07-9.4c-5.3 0-9 4.19-9 9.31v.09a9.22 9.22 0 0 0 13 8.59z"/><path d="m74.87 40h11.28c9.4 0 15.9 6.45 15.9 14.86v.09c0 8.42-6.5 15-15.9 15h-11.28zm6.58 5.94v18h4.7c5.38 0 9-3.63 9-8.92v-.09a8.59 8.59 0 0 0 -9-9z"/></g></svg>