<?xml version="1.0" encoding="UTF-8"?>
<svg width="240px" height="60px" viewBox="0 0 240 60" version="1.1" xmlns="http://www.w3.org/2000/svg" xmlns:xlink="http://www.w3.org/1999/xlink">
    <!-- Generator: Sketch 53.1 (72631) - https://sketchapp.com -->
    <title>Artboard</title>
    <desc>Created with Sketch.</desc>
    <g id="Artboard" stroke="none" stroke-width="1" fill="none" fill-rule="evenodd">
        <g id="uptrends" transform="translate(0.000000, 7.000000)" fill-rule="nonzero">
            <g id="Group" transform="translate(48.000000, 8.400000)" fill="#47505F">
                <path d="M22.92,1.8 L22.92,17.52 C22.92,20.88 21.96,23.52 20.04,25.44 C18.12,27.36 15.36,28.2 11.64,28.2 C8.04,28.2 5.4,27.24 3.48,25.44 C1.56,23.64 0.6,21 0.6,17.64 L0.6,1.8 L7.68,1.8 L7.68,17.04 C7.68,18.84 8.04,20.16 8.76,21 C9.48,21.84 10.44,22.2 11.76,22.2 C13.2,22.2 14.28,21.84 14.88,21 C15.48,20.16 15.84,18.84 15.84,16.92 L15.84,1.8 L22.92,1.8 L22.92,1.8 Z" id="Path"></path>
                <path d="M47.28,10.08 C47.28,12.96 46.44,15.24 44.76,16.8 C43.08,18.36 40.56,19.2 37.44,19.2 L35.52,19.2 L35.52,27.84 L28.44,27.84 L28.44,1.8 L37.44,1.8 C40.68,1.8 43.2,2.52 44.88,3.96 C46.56,5.28 47.28,7.32 47.28,10.08 Z M35.52,13.44 L36.84,13.44 C37.92,13.44 38.76,13.2 39.36,12.6 C39.96,12 40.32,11.16 40.32,10.2 C40.32,8.4 39.36,7.56 37.44,7.56 L35.64,7.56 L35.64,13.44 L35.52,13.44 Z" id="Shape"></path>
                <polygon id="Path" points="63 27.84 55.92 27.84 55.92 7.44 49.56 7.44 49.56 1.8 69.24 1.8 69.24 7.56 62.88 7.56"></polygon>
                <path d="M80.04,18.36 L80.04,27.84 L72.96,27.84 L72.96,1.8 L81.48,1.8 C88.56,1.8 92.04,4.32 92.04,9.48 C92.04,12.48 90.6,14.88 87.6,16.44 L95.16,27.84 L87.12,27.84 L81.6,18.36 L80.04,18.36 L80.04,18.36 Z M80.04,13.08 L81.36,13.08 C83.88,13.08 85.08,12 85.08,9.84 C85.08,8.04 83.88,7.2 81.48,7.2 L80.04,7.2 L80.04,13.08 L80.04,13.08 Z" id="Shape"></path>
                <polygon id="Path" points="113.16 27.84 97.68 27.84 97.68 1.8 113.16 1.8 113.16 7.44 104.76 7.44 104.76 11.52 112.56 11.52 112.56 17.16 104.76 17.16 104.76 22.08 113.16 22.08"></polygon>
                <path d="M142.56,27.84 L133.32,27.84 L123.84,9.48 L123.6,9.48 C123.84,12.36 123.96,14.52 123.96,16.08 L123.96,27.84 L117.72,27.84 L117.72,1.8 L126.96,1.8 L136.44,19.92 L136.56,19.92 C136.44,17.28 136.32,15.24 136.32,13.56 L136.32,1.8 L142.56,1.8 L142.56,27.84 L142.56,27.84 Z" id="Path"></path>
                <path d="M170.28,14.16 C170.28,18.48 169.08,21.84 166.68,24.24 C164.28,26.64 160.92,27.72 156.6,27.72 L148.2,27.72 L148.2,1.8 L157.2,1.8 C161.4,1.8 164.64,2.88 166.92,5.04 C169.2,7.08 170.28,10.2 170.28,14.16 Z M162.96,14.52 C162.96,12.12 162.48,10.32 161.52,9.24 C160.56,8.04 159.12,7.56 157.2,7.56 L155.16,7.56 L155.16,22.2 L156.72,22.2 C158.88,22.2 160.44,21.6 161.4,20.28 C162.48,18.96 162.96,17.04 162.96,14.52 Z" id="Shape"></path>
                <path d="M192,19.92 C192,21.48 191.64,22.92 190.8,24.24 C189.96,25.44 188.76,26.52 187.2,27.12 C185.64,27.84 183.84,28.2 181.8,28.2 C180.12,28.2 178.56,28.08 177.48,27.84 C176.28,27.6 175.08,27.12 173.76,26.52 L173.76,20.28 C175.08,21 176.52,21.48 177.96,21.84 C179.4,22.2 180.72,22.44 181.92,22.44 C183,22.44 183.72,22.32 184.2,21.84 C184.68,21.48 184.92,21 184.92,20.4 C184.92,20.04 184.8,19.68 184.68,19.44 C184.44,19.2 184.2,18.96 183.72,18.6 C183.24,18.36 182.16,17.76 180.24,16.92 C178.56,16.2 177.24,15.36 176.4,14.64 C175.56,13.92 174.96,13.08 174.48,12.12 C174.12,11.16 173.88,10.08 173.88,8.76 C173.88,6.36 174.72,4.44 176.52,3.12 C178.32,1.8 180.72,1.08 183.72,1.08 C186.36,1.08 189.12,1.68 192,3 L189.84,8.4 C187.44,7.32 185.28,6.72 183.48,6.72 C182.52,6.72 181.92,6.84 181.44,7.2 C181.08,7.56 180.84,7.92 180.84,8.4 C180.84,8.88 181.08,9.36 181.68,9.72 C182.16,10.08 183.6,10.92 186,11.88 C188.28,12.84 189.84,13.92 190.68,15.12 C191.52,16.68 192,18.12 192,19.92 Z" id="Path"></path>
            </g>
            <path d="M21.72,0.96 C9.72,0.96 0,10.92 0,23.28 C0,35.64 9.72,45.6 21.72,45.6 C33.72,45.6 43.44,35.64 43.44,23.28 C43.44,10.92 33.72,0.96 21.72,0.96 Z M6.84,24.12 C5.64,22.92 5.64,21 6.72,19.92 L17.64,9 C18.84,7.8 20.64,7.92 21.84,9.12 C23.04,10.32 23.04,12.24 21.96,13.32 L11.04,24.24 C9.96,25.32 8.04,25.32 6.84,24.12 Z M14.4,30.84 C13.2,29.64 13.2,27.72 14.28,26.64 L25.2,15.72 C26.4,14.52 28.2,14.64 29.4,15.84 C30.6,17.04 30.6,18.96 29.52,20.04 L18.6,30.96 C17.4,32.16 15.6,32.04 14.4,30.84 Z M25.92,37.68 C24.72,38.88 22.92,38.76 21.72,37.56 C20.52,36.36 20.52,34.44 21.6,33.36 L32.52,22.44 C33.72,21.24 35.52,21.36 36.72,22.56 C37.92,23.76 37.92,25.68 36.84,26.76 L25.92,37.68 Z" id="Shape" fill="#0ABBD7"></path>
        </g>
    </g>
</svg>