<svg width="240" height="60" viewBox="0 0 240 60" xmlns="http://www.w3.org/2000/svg"><g fill-rule="nonzero" fill="none"><g fill="#47505F"><path d="M70.92 17.2v15.72c0 3.36-.96 6-2.88 7.92s-4.68 2.76-8.4 2.76c-3.6 0-6.24-.96-8.16-2.76-1.92-1.8-2.88-4.44-2.88-7.8V17.2h7.08v15.24c0 1.8.36 3.12 1.08 3.96.72.84 1.68 1.2 3 1.2 1.44 0 2.52-.36 3.12-1.2.6-.84.96-2.16.96-4.08V17.2h7.08zM95.28 25.48c0 2.88-.84 5.16-2.52 6.72-1.68 1.56-4.2 2.4-7.32 2.4h-1.92v8.64h-7.08V17.2h9c3.24 0 5.76.72 7.44 2.16 1.68 1.32 2.4 3.36 2.4 6.12zm-11.76 3.36h1.32c1.08 0 1.92-.24 2.52-.84.6-.6.96-1.44.96-2.4 0-1.8-.96-2.64-2.88-2.64h-1.8v5.88h-.12zM111 43.24h-7.08v-20.4h-6.36V17.2h19.68v5.76h-6.36zM128.04 33.76v9.48h-7.08V17.2h8.52c7.08 0 10.56 2.52 10.56 7.68 0 3-1.44 5.4-4.44 6.96l7.56 11.4h-8.04l-5.52-9.48h-1.56zm0-5.28h1.32c2.52 0 3.72-1.08 3.72-3.24 0-1.8-1.2-2.64-3.6-2.64h-1.44v5.88zM161.16 43.24h-15.48V17.2h15.48v5.64h-8.4v4.08h7.8v5.64h-7.8v4.92h8.4zM190.56 43.24h-9.24l-9.48-18.36h-.24c.24 2.88.36 5.04.36 6.6v11.76h-6.24V17.2h9.24l9.48 18.12h.12c-.12-2.64-.24-4.68-.24-6.36V17.2h6.24v26.04zM218.28 29.56c0 4.32-1.2 7.68-3.6 10.08-2.4 2.4-5.76 3.48-10.08 3.48h-8.4V17.2h9c4.2 0 7.44 1.08 9.72 3.24 2.28 2.04 3.36 5.16 3.36 9.12zm-7.32.36c0-2.4-.48-4.2-1.44-5.28-.96-1.2-2.4-1.68-4.32-1.68h-2.04V37.6h1.56c2.16 0 3.72-.6 4.68-1.92 1.08-1.32 1.56-3.24 1.56-5.76zM240 35.32c0 1.56-.36 3-1.2 4.32-.84 1.2-2.04 2.28-3.6 2.88-1.56.72-3.36 1.08-5.4 1.08-1.68 0-3.24-.12-4.32-.36-1.2-.24-2.4-.72-3.72-1.32v-6.24c1.32.72 2.76 1.2 4.2 1.56 1.44.36 2.76.6 3.96.6 1.08 0 1.8-.12 2.28-.6.48-.36.72-.84.72-1.44 0-.36-.12-.72-.24-.96-.24-.24-.48-.48-.96-.84-.48-.24-1.56-.84-3.48-1.68-1.68-.72-3-1.56-3.84-2.28-.84-.72-1.44-1.56-1.92-2.52-.36-.96-.6-2.04-.6-3.36 0-2.4.84-4.32 2.64-5.64 1.8-1.32 4.2-2.04 7.2-2.04 2.64 0 5.4.6 8.28 1.92l-2.16 5.4c-2.4-1.08-4.56-1.68-6.36-1.68-.96 0-1.56.12-2.04.48-.36.36-.6.72-.6 1.2s.24.96.84 1.32c.48.36 1.92 1.2 4.32 2.16 2.28.96 3.84 2.04 4.68 3.24.84 1.56 1.32 3 1.32 4.8z"/></g><path d="M21.72 7.96C9.72 7.96 0 17.92 0 30.28S9.72 52.6 21.72 52.6c12 0 21.72-9.96 21.72-22.32S33.72 7.96 21.72 7.96zM6.84 31.12c-1.2-1.2-1.2-3.12-.12-4.2L17.64 16c1.2-1.2 3-1.08 4.2.12 1.2 1.2 1.2 3.12.12 4.2L11.04 31.24c-1.08 1.08-3 1.08-4.2-.12zm7.56 6.72c-1.2-1.2-1.2-3.12-.12-4.2L25.2 22.72c1.2-1.2 3-1.08 4.2.12 1.2 1.2 1.2 3.12.12 4.2L18.6 37.96c-1.2 1.2-3 1.08-4.2-.12zm11.52 6.84c-1.2 1.2-3 1.08-4.2-.12-1.2-1.2-1.2-3.12-.12-4.2l10.92-10.92c1.2-1.2 3-1.08 4.2.12 1.2 1.2 1.2 3.12.12 4.2L25.92 44.68z" fill="#0ABBD7"/></g></svg>